<svg width="392" height="290" viewBox="0 0 392 290" fill="none" xmlns="http://www.w3.org/2000/svg">
<g clip-path="url(#clip0)">
<g opacity="0.1">
<path opacity="0.1" d="M313.879 205.459C313.879 205.459 285.895 201.826 306.765 247.108C306.765 247.108 325.784 238.96 326.542 220.58C326.696 217.003 325.532 213.494 323.271 210.718C321.011 207.942 317.81 206.091 314.275 205.516L313.879 205.459Z" fill="#6C63FF"/>
<path opacity="0.1" d="M314.29 205.391C314.29 205.391 320.625 230.64 306.786 247.111" stroke="#535461" stroke-miterlimit="10"/>
<path opacity="0.1" d="M306.408 249.444C306.408 249.444 316.484 224.617 335.299 215.408C343.222 211.595 349.693 205.315 353.74 197.511C355.631 193.793 357.178 189.911 358.36 185.911" stroke="#535461" stroke-width="2" stroke-miterlimit="10"/>
<path opacity="0.1" d="M370.183 180.042C368.221 182.507 358.07 186.115 358.07 186.115C358.07 186.115 359.292 175.398 361.254 172.951C361.701 172.312 362.275 171.772 362.939 171.363C363.603 170.954 364.344 170.685 365.116 170.574C365.888 170.462 366.675 170.509 367.428 170.712C368.181 170.916 368.884 171.271 369.495 171.756C370.105 172.242 370.61 172.847 370.978 173.535C371.346 174.222 371.569 174.978 371.634 175.755C371.699 176.532 371.604 177.315 371.355 178.054C371.106 178.793 370.708 179.473 370.187 180.053L370.183 180.042Z" fill="#6C63FF"/>
<path opacity="0.1" d="M366.699 199.565C363.712 200.568 353.236 198.071 353.236 198.071C353.236 198.071 360.078 189.755 363.065 188.751C363.789 188.455 364.566 188.31 365.348 188.326C366.129 188.341 366.9 188.517 367.611 188.842C368.322 189.167 368.959 189.635 369.482 190.216C370.005 190.796 370.404 191.479 370.653 192.22C370.902 192.961 370.996 193.745 370.93 194.524C370.864 195.303 370.638 196.06 370.268 196.749C369.897 197.437 369.389 198.042 368.776 198.526C368.162 199.011 367.455 199.364 366.699 199.565Z" fill="#6C63FF"/>
<path opacity="0.1" d="M347.812 222.645C344.729 222.005 336.943 214.561 336.943 214.561C336.943 214.561 347.047 210.835 350.135 211.474C351.532 211.864 352.728 212.769 353.483 214.007C354.237 215.246 354.492 216.724 354.197 218.144C353.902 219.563 353.078 220.818 351.892 221.653C350.707 222.488 349.248 222.841 347.812 222.641V222.645Z" fill="#6C63FF"/>
<path opacity="0.1" d="M329.59 236.891C326.442 236.78 317.509 230.761 317.509 230.761C317.509 230.761 326.842 225.374 329.99 225.488C331.433 225.635 332.766 226.325 333.72 227.418C334.673 228.511 335.175 229.926 335.124 231.375C335.073 232.825 334.473 234.201 333.446 235.224C332.418 236.248 331.039 236.842 329.59 236.888V236.891Z" fill="#6C63FF"/>
<path opacity="0.1" d="M343.481 191.08C343.885 194.206 350.706 202.537 350.706 202.537C350.706 202.537 355.197 192.749 354.797 189.623C354.748 188.842 354.539 188.08 354.184 187.384C353.828 186.687 353.334 186.071 352.73 185.573C352.127 185.075 351.428 184.707 350.677 184.49C349.925 184.273 349.137 184.213 348.361 184.313C347.585 184.413 346.838 184.671 346.166 185.071C345.494 185.471 344.912 186.005 344.454 186.639C343.997 187.274 343.674 187.995 343.507 188.759C343.34 189.523 343.331 190.313 343.481 191.08Z" fill="#6C63FF"/>
<path opacity="0.1" d="M322.379 208.027C323.697 210.885 332.702 216.797 332.702 216.797C332.702 216.797 334.059 206.113 332.741 203.255C332.46 202.525 332.032 201.861 331.485 201.304C330.937 200.746 330.28 200.307 329.556 200.013C328.832 199.719 328.055 199.576 327.273 199.595C326.492 199.613 325.722 199.791 325.012 200.118C324.302 200.445 323.667 200.915 323.146 201.497C322.624 202.079 322.228 202.763 321.981 203.504C321.735 204.246 321.642 205.03 321.711 205.809C321.779 206.587 322.007 207.344 322.379 208.031V208.027Z" fill="#6C63FF"/>
<path opacity="0.1" d="M304.128 227.296C304.943 230.34 312.821 237.684 312.821 237.684C312.821 237.684 315.965 227.385 315.147 224.342C314.995 223.574 314.687 222.846 314.242 222.202C313.797 221.559 313.224 221.013 312.56 220.6C311.895 220.187 311.153 219.914 310.378 219.799C309.604 219.684 308.815 219.73 308.059 219.932C307.303 220.135 306.596 220.491 305.984 220.977C305.371 221.464 304.864 222.071 304.496 222.762C304.127 223.452 303.905 224.211 303.841 224.991C303.778 225.771 303.876 226.555 304.128 227.296Z" fill="#6C63FF"/>
<path opacity="0.25" d="M370.183 180.042C368.221 182.507 358.07 186.115 358.07 186.115C358.07 186.115 359.292 175.398 361.254 172.951C361.701 172.312 362.275 171.772 362.939 171.363C363.603 170.954 364.344 170.685 365.116 170.574C365.888 170.462 366.675 170.509 367.428 170.712C368.181 170.916 368.884 171.271 369.495 171.756C370.105 172.242 370.61 172.847 370.978 173.535C371.346 174.222 371.569 174.978 371.634 175.755C371.699 176.532 371.604 177.315 371.355 178.054C371.106 178.793 370.708 179.473 370.187 180.053L370.183 180.042Z" fill="black"/>
<path opacity="0.25" d="M366.699 199.565C363.712 200.568 353.236 198.071 353.236 198.071C353.236 198.071 360.078 189.755 363.065 188.751C363.789 188.455 364.566 188.31 365.348 188.326C366.129 188.341 366.9 188.517 367.611 188.842C368.322 189.167 368.959 189.635 369.482 190.216C370.005 190.796 370.404 191.479 370.653 192.22C370.902 192.961 370.996 193.745 370.93 194.524C370.864 195.303 370.638 196.06 370.268 196.749C369.897 197.437 369.389 198.042 368.776 198.526C368.162 199.011 367.455 199.364 366.699 199.565Z" fill="black"/>
<path opacity="0.25" d="M347.812 222.645C344.729 222.005 336.943 214.561 336.943 214.561C336.943 214.561 347.047 210.835 350.135 211.474C351.532 211.864 352.728 212.769 353.483 214.007C354.237 215.246 354.492 216.724 354.197 218.144C353.902 219.563 353.078 220.818 351.892 221.653C350.707 222.488 349.248 222.841 347.812 222.641V222.645Z" fill="black"/>
<path opacity="0.25" d="M329.59 236.891C326.442 236.78 317.509 230.761 317.509 230.761C317.509 230.761 326.842 225.374 329.99 225.488C331.433 225.635 332.766 226.325 333.72 227.418C334.673 228.511 335.175 229.926 335.124 231.375C335.073 232.825 334.473 234.201 333.446 235.224C332.418 236.248 331.039 236.842 329.59 236.888V236.891Z" fill="black"/>
<path opacity="0.25" d="M343.481 191.08C343.885 194.206 350.706 202.537 350.706 202.537C350.706 202.537 355.197 192.749 354.797 189.623C354.748 188.842 354.539 188.08 354.184 187.384C353.828 186.687 353.334 186.071 352.73 185.573C352.127 185.075 351.428 184.707 350.677 184.49C349.925 184.273 349.137 184.213 348.361 184.313C347.585 184.413 346.838 184.671 346.166 185.071C345.494 185.471 344.912 186.005 344.454 186.639C343.997 187.274 343.674 187.995 343.507 188.759C343.34 189.523 343.331 190.313 343.481 191.08Z" fill="black"/>
<path opacity="0.25" d="M322.379 208.027C323.697 210.885 332.702 216.797 332.702 216.797C332.702 216.797 334.059 206.113 332.741 203.255C332.46 202.525 332.032 201.861 331.485 201.304C330.937 200.746 330.28 200.307 329.556 200.013C328.832 199.719 328.055 199.576 327.273 199.595C326.492 199.613 325.722 199.791 325.012 200.118C324.302 200.445 323.667 200.915 323.146 201.497C322.624 202.079 322.228 202.763 321.981 203.504C321.735 204.246 321.642 205.03 321.711 205.809C321.779 206.587 322.007 207.344 322.379 208.031V208.027Z" fill="black"/>
<path opacity="0.25" d="M304.128 227.296C304.943 230.34 312.821 237.684 312.821 237.684C312.821 237.684 315.965 227.385 315.147 224.342C314.995 223.574 314.687 222.846 314.242 222.202C313.797 221.559 313.224 221.013 312.56 220.6C311.895 220.187 311.153 219.914 310.378 219.799C309.604 219.684 308.815 219.73 308.059 219.932C307.303 220.135 306.596 220.491 305.984 220.977C305.371 221.464 304.864 222.071 304.496 222.762C304.127 223.452 303.905 224.211 303.841 224.991C303.778 225.771 303.876 226.555 304.128 227.296Z" fill="black"/>
<path opacity="0.1" d="M319.828 260.74C319.828 260.74 329.904 235.912 348.72 226.703C356.639 222.888 363.106 216.606 367.149 208.802C369.041 205.085 370.587 201.203 371.769 197.203" stroke="#535461" stroke-width="2" stroke-miterlimit="10"/>
<path opacity="0.1" d="M383.586 191.33C381.624 193.795 371.473 197.403 371.473 197.403C371.473 197.403 372.695 186.687 374.657 184.24C375.63 183.157 376.981 182.487 378.432 182.366C379.883 182.246 381.325 182.683 382.465 183.589C383.604 184.495 384.355 185.801 384.564 187.242C384.773 188.683 384.424 190.149 383.589 191.341L383.586 191.33Z" fill="#6C63FF"/>
<path opacity="0.1" d="M380.109 210.853C377.122 211.857 366.646 209.36 366.646 209.36C366.646 209.36 373.488 201.043 376.475 200.04C377.879 199.667 379.371 199.843 380.65 200.531C381.929 201.219 382.898 202.368 383.36 203.744C383.822 205.12 383.744 206.621 383.14 207.941C382.536 209.261 381.452 210.302 380.109 210.853Z" fill="#6C63FF"/>
<path opacity="0.1" d="M361.222 233.948C358.138 233.308 350.353 225.864 350.353 225.864C350.353 225.864 360.457 222.138 363.544 222.777C364.941 223.166 366.138 224.072 366.892 225.31C367.646 226.548 367.902 228.027 367.607 229.446C367.311 230.866 366.488 232.12 365.302 232.955C364.117 233.79 362.658 234.144 361.222 233.944V233.948Z" fill="#6C63FF"/>
<path opacity="0.1" d="M342.996 248.176C339.848 248.065 330.915 242.046 330.915 242.046C330.915 242.046 340.248 236.666 343.396 236.777C344.839 236.924 346.172 237.613 347.126 238.707C348.079 239.8 348.581 241.214 348.53 242.664C348.479 244.113 347.879 245.489 346.852 246.512C345.824 247.536 344.445 248.131 342.996 248.176Z" fill="#6C63FF"/>
<path opacity="0.1" d="M356.888 202.383C357.291 205.509 364.112 213.839 364.112 213.839C364.112 213.839 368.604 204.051 368.203 200.926C368.154 200.145 367.946 199.383 367.59 198.686C367.235 197.99 366.74 197.374 366.137 196.876C365.533 196.378 364.834 196.009 364.083 195.793C363.331 195.576 362.543 195.516 361.767 195.615C360.992 195.715 360.245 195.973 359.573 196.374C358.901 196.774 358.318 197.307 357.86 197.942C357.403 198.576 357.081 199.298 356.913 200.062C356.746 200.826 356.737 201.616 356.888 202.383Z" fill="#6C63FF"/>
<path opacity="0.1" d="M335.789 219.301C337.107 222.159 346.111 228.071 346.111 228.071C346.111 228.071 347.469 217.387 346.151 214.529C345.459 213.252 344.307 212.286 342.929 211.828C341.551 211.369 340.049 211.452 338.73 212.06C337.411 212.668 336.373 213.756 335.827 215.101C335.28 216.447 335.267 217.95 335.789 219.305V219.301Z" fill="#6C63FF"/>
<path opacity="0.1" d="M317.538 238.592C318.352 241.635 326.231 248.98 326.231 248.98C326.231 248.98 329.375 238.681 328.557 235.637C328.089 234.264 327.117 233.121 325.837 232.438C324.557 231.755 323.066 231.584 321.665 231.96C320.264 232.335 319.058 233.23 318.291 234.461C317.525 235.692 317.256 237.169 317.538 238.592Z" fill="#6C63FF"/>
</g>
<path opacity="0.1" d="M4.23413 153.597C10.437 180.103 23.5679 203.015 44.3202 214.122C87.447 237.202 184.709 225.299 257.299 211.621C293.977 204.735 327.269 185.71 351.817 157.608L4.23413 153.597Z" fill="#6C63FF"/>
<path opacity="0.1" d="M384.89 28.8317H345.061C344.148 28.8317 343.272 28.4691 342.626 27.8236C341.981 27.1782 341.618 26.3027 341.618 25.3899C341.618 24.477 341.981 23.6016 342.626 22.9561C343.272 22.3106 344.148 21.948 345.061 21.948H351.946C351.033 21.948 350.157 21.5854 349.512 20.9399C348.866 20.2944 348.503 19.419 348.503 18.5061C348.503 17.5933 348.866 16.7178 349.512 16.0723C350.157 15.4269 351.033 15.0642 351.946 15.0642H347.029C346.116 15.0642 345.241 14.7016 344.595 14.0561C343.95 13.4107 343.587 12.5352 343.587 11.6224C343.587 10.7095 343.95 9.83406 344.595 9.18859C345.241 8.54311 346.116 8.18048 347.029 8.18048H367.818C363.205 6.03712 357.813 4.51177 351.603 3.71158C294.92 -3.56869 274.682 1.24672 267.543 6.21217C258.736 12.3207 248.91 16.8146 238.409 18.9794C203.432 26.1847 138.027 34.8653 78.7465 16.1931C49.2831 6.90519 27.3838 22.5946 14.26 48.8007H391.803C391.31 41.1846 389.835 34.1544 387.126 27.9958C386.505 28.5339 385.711 28.8306 384.89 28.8317Z" fill="#6C63FF"/>
<path opacity="0.1" d="M0.853951 98.273C-0.675134 113.689 -0.154898 129.24 2.40108 144.52L352.089 157.305C361.823 146.11 369.996 133.648 376.386 120.26L0.853951 98.273ZM139.16 131.263H132.275C133.188 131.263 134.063 131.625 134.709 132.271C135.354 132.916 135.717 133.792 135.717 134.705C135.717 135.618 135.354 136.493 134.709 137.139C134.063 137.784 133.188 138.147 132.275 138.147H92.4457C91.5326 138.147 90.657 137.784 90.0114 137.139C89.3657 136.493 89.003 135.618 89.003 134.705C89.003 133.792 89.3657 132.916 90.0114 132.271C90.657 131.625 91.5326 131.263 92.4457 131.263H99.3309C98.4179 131.263 97.5423 130.9 96.8966 130.255C96.251 129.609 95.8883 128.734 95.8883 127.821C95.8883 126.908 96.251 126.033 96.8966 125.387C97.5423 124.742 98.4179 124.379 99.3309 124.379H94.4144C93.5014 124.379 92.6257 124.016 91.9801 123.371C91.3345 122.726 90.9718 121.85 90.9718 120.937C90.9718 120.024 91.3345 119.149 91.9801 118.503C92.6257 117.858 93.5014 117.495 94.4144 117.495H134.243C135.156 117.495 136.032 117.858 136.678 118.503C137.323 119.149 137.686 120.024 137.686 120.937C137.686 121.85 137.323 122.726 136.678 123.371C136.032 124.016 135.156 124.379 134.243 124.379H139.16C140.073 124.379 140.949 124.742 141.594 125.387C142.24 126.033 142.602 126.908 142.602 127.821C142.602 128.734 142.24 129.609 141.594 130.255C140.949 130.9 140.073 131.263 139.16 131.263Z" fill="#6C63FF"/>
<path opacity="0.1" d="M391.821 49.04L10.0439 58.3279C5.40246 70.2629 2.34036 83.7553 0.911133 97.7407H385.133C387.641 89.5253 389.497 81.1246 390.682 72.617C391.825 64.3972 392.282 56.4454 391.821 49.04ZM78.4179 79.465H71.5326C72.4456 79.465 73.3213 79.8277 73.9669 80.4731C74.6125 81.1186 74.9752 81.9941 74.9752 82.9069C74.9752 83.8197 74.6125 84.6952 73.9669 85.3407C73.3213 85.9862 72.4456 86.3488 71.5326 86.3488H31.7037C30.7907 86.3488 29.915 85.9862 29.2694 85.3407C28.6238 84.6952 28.2611 83.8197 28.2611 82.9069C28.2611 81.9941 28.6238 81.1186 29.2694 80.4731C29.915 79.8277 30.7907 79.465 31.7037 79.465H38.589C37.676 79.465 36.8003 79.1024 36.1547 78.4569C35.5091 77.8114 35.1464 76.936 35.1464 76.0231C35.1464 75.1103 35.5091 74.2348 36.1547 73.5894C36.8003 72.9439 37.676 72.5813 38.589 72.5813H33.6725C32.7594 72.5813 31.8838 72.2186 31.2382 71.5732C30.5926 70.9277 30.2298 70.0522 30.2298 69.1394C30.2298 68.2265 30.5926 67.3511 31.2382 66.7056C31.8838 66.0601 32.7594 65.6975 33.6725 65.6975H73.5013C74.4144 65.6975 75.29 66.0601 75.9357 66.7056C76.5813 67.3511 76.944 68.2265 76.944 69.1394C76.944 70.0522 76.5813 70.9277 75.9357 71.5732C75.29 72.2186 74.4144 72.5813 73.5013 72.5813H78.4179C79.3309 72.5813 80.2066 72.9439 80.8522 73.5894C81.4978 74.2348 81.8605 75.1103 81.8605 76.0231C81.8605 76.936 81.4978 77.8114 80.8522 78.4569C80.2066 79.1024 79.3309 79.465 78.4179 79.465Z" fill="#6C63FF"/>
<path d="M335.396 289.818C335.396 289.818 319.474 202.512 289.114 188.344C263.388 176.331 235.568 168.232 227.657 166.035C226.476 164.133 225.111 162.351 223.58 160.716C212.768 149.431 206.273 149.642 205.222 149.781C204.724 147.544 204.366 145.277 204.15 142.994C204.118 142.637 204.086 142.305 204.057 141.951L204.15 141.905C204.086 141.229 204.029 140.533 203.979 139.815C208.392 137.46 212.456 134.501 216.052 131.024C216.098 131.177 216.138 131.331 216.188 131.488C223.979 124.903 231.61 118.14 239.08 111.197C241.224 109.193 243.475 107.018 244.204 104.192C244.438 103.22 244.528 102.219 244.472 101.22C244.569 99.0768 244.061 96.887 243.976 94.715C243.976 94.3578 244.015 94.0256 244.061 93.6862C244.561 90.1318 247.034 87.2133 249.064 84.2304C254.134 76.6925 256.781 67.786 256.649 58.703C256.705 54.3508 256.102 50.0152 254.863 45.8429C253.28 40.5488 249.985 34.9868 244.501 33.8293C242.378 33.3828 240.174 33.6614 238.008 33.5221C229.044 32.9506 222.333 25.6631 215.184 20.3226C206.458 13.8361 196.138 9.83176 185.32 8.73419C181.944 8.37696 178.456 8.35195 175.244 9.42363C168.03 11.8242 163.65 19.2366 156.7 22.2838C151.562 24.5486 145.624 24.1807 140.264 25.8811C132.285 28.4174 125.514 36.5979 125.336 45.0034C125.336 45.3142 125.336 45.625 125.336 45.9358C125.336 45.9893 125.336 46.0429 125.336 46.0929C125.246 50.3404 126.765 54.6664 126.886 59.0138C126.886 59.4068 126.892 59.8009 126.904 60.1962C126.865 64.8902 126.304 69.5984 124.593 74.0102C123.671 76.3857 122.484 79.1364 122.677 81.5119C122.57 82.9659 122.852 84.3305 123.864 85.4414L125.589 83.9196C125.011 87.0515 124.72 90.2298 124.721 93.4147C124.721 109.468 132.024 123.843 143.544 133.517C143.611 134.586 143.675 135.732 143.737 136.953C144.009 142.248 144.223 148.888 144.162 156.126L127.312 171.612L83.9919 191.259C83.9919 191.259 44.3738 199.625 52.9063 255.27L56.9796 289.821H93.1496L93.0675 290.004H146.753L146.785 289.821H274.514L274.489 290.004H279.492V289.821L335.396 289.818ZM205.54 150.667C206.635 152.932 207.497 155.302 208.113 157.74C206.849 155.394 205.914 152.884 205.336 150.282L205.39 150.378L205.54 150.667ZM144.148 157.812C144.148 158.493 144.136 159.18 144.112 159.873L144.026 159.995C144.021 159.259 144.061 158.524 144.148 157.794V157.812Z" fill="url(#paint0_linear)"/>
<path d="M219.671 166.575L212.525 234.805L174.294 246.951C174.294 246.951 124.628 237.663 137.491 210.871C146.642 191.813 146.388 157.755 145.48 139.679C145.123 132.342 144.637 127.637 144.637 127.637C144.637 127.637 209.667 70.838 204.307 121.921C203.271 131.813 203.21 139.547 203.786 145.591C206.197 170.754 219.671 166.575 219.671 166.575Z" fill="#FDC2CC"/>
<path opacity="0.03" d="M219.671 166.575L212.525 234.805L174.294 246.951C174.294 246.951 124.628 237.663 137.491 210.871C146.642 191.813 146.388 157.755 145.48 139.679C145.123 132.342 144.637 127.637 144.637 127.637C144.637 127.637 209.667 70.838 204.307 121.921C203.271 131.813 203.21 139.547 203.786 145.591C206.197 170.754 219.671 166.575 219.671 166.575Z" fill="black"/>
<path opacity="0.1" d="M204.307 120.85C203.271 130.741 203.21 138.475 203.786 144.52C194.605 149.53 184.123 151.647 173.717 150.592C163.311 149.537 153.468 145.359 145.48 138.607C145.123 131.27 144.637 126.565 144.637 126.565C144.637 126.565 209.667 69.7663 204.307 120.85Z" fill="black"/>
<path d="M178.939 148.717C207.552 148.717 230.748 125.526 230.748 96.9191C230.748 68.3119 207.552 45.1213 178.939 45.1213C150.325 45.1213 127.129 68.3119 127.129 96.9191C127.129 125.526 150.325 148.717 178.939 148.717Z" fill="#FDC2CC"/>
<path opacity="0.03" d="M178.939 148.717C207.552 148.717 230.748 125.526 230.748 96.9191C230.748 68.3119 207.552 45.1213 178.939 45.1213C150.325 45.1213 127.129 68.3119 127.129 96.9191C127.129 125.526 150.325 148.717 178.939 148.717Z" fill="black"/>
<path opacity="0.1" d="M93.5425 235.519C93.5425 235.519 110.336 269.813 111.229 289.996L93.5425 235.519Z" fill="black"/>
<path opacity="0.1" d="M276.483 255.17L271.659 290H276.483V255.17Z" fill="black"/>
<path opacity="0.1" d="M97.2944 289.996L123.914 229.447C123.914 229.447 131.417 215.158 133.204 200.868C134.99 186.579 144.637 164.074 144.637 164.074C144.637 164.074 168.577 133.71 179.653 137.997C190.73 142.283 170.006 158.358 170.006 158.358C170.006 158.358 200.377 170.147 179.653 205.155C158.93 240.163 158.572 233.733 158.572 233.733L148.389 289.996H97.2944Z" fill="black"/>
<path d="M96.5796 289.996L123.199 229.447C123.199 229.447 130.702 215.157 132.489 200.868C133.625 191.784 137.938 179.378 140.928 171.544C142.88 166.422 145.753 161.701 149.404 157.612C157.143 148.953 171.199 134.989 178.939 137.989C190.015 142.276 169.291 158.351 169.291 158.351C169.291 158.351 199.662 170.14 178.939 205.148C158.215 240.156 157.858 233.726 157.858 233.726L147.674 289.989L96.5796 289.996Z" fill="#FDC2CC"/>
<path opacity="0.15" d="M194.839 68.8768C195.431 68.8768 195.911 68.397 195.911 67.8052C195.911 67.2133 195.431 66.7335 194.839 66.7335C194.247 66.7335 193.767 67.2133 193.767 67.8052C193.767 68.397 194.247 68.8768 194.839 68.8768Z" fill="white"/>
<path opacity="0.15" d="M189.837 71.0202C190.429 71.0202 190.908 70.5404 190.908 69.9485C190.908 69.3566 190.429 68.8768 189.837 68.8768C189.245 68.8768 188.765 69.3566 188.765 69.9485C188.765 70.5404 189.245 71.0202 189.837 71.0202Z" fill="white"/>
<path opacity="0.1" d="M142.133 31.6431C147.303 29.9713 153.041 30.3321 158.001 28.1101C164.707 25.1023 168.934 17.822 175.894 15.4643C178.996 14.4141 182.362 14.4534 185.617 14.7892C196.084 15.8783 206.052 19.816 214.437 26.174C221.337 31.4216 227.811 38.5769 236.461 39.1377C238.551 39.2735 240.677 38.9984 242.725 39.4378C248.027 40.5738 251.204 46.0358 252.729 51.2263C254.494 57.3776 254.908 63.8378 253.942 70.164C252.977 76.4902 250.654 82.5328 247.134 87.8777C245.176 90.807 242.789 93.6755 242.307 97.1656C241.835 100.588 243.293 104.135 242.443 107.486C241.728 110.262 239.584 112.398 237.497 114.366C230.292 121.18 222.928 127.818 215.405 134.281C211.496 121.864 217.231 108.493 216.338 95.5081C215.98 90.4497 214.194 84.927 209.731 82.5407C205.554 80.3116 200.216 81.4691 195.989 79.3257C191.273 76.9501 189.336 71.3238 185.77 67.4301C179.696 60.7856 169.152 59.9283 160.659 62.929C152.166 65.9297 145.223 72.1026 138.506 78.1219L126.297 89.0708C123.914 86.3845 125.722 82.2621 127.011 78.9042C128.934 73.8709 129.355 68.4446 129.227 63.1005C129.123 58.8138 127.644 54.5806 127.73 50.4082C127.901 42.1777 134.433 34.133 142.133 31.6431Z" fill="black"/>
<path d="M142.133 30.5714C147.303 28.8996 153.041 29.2604 158.001 27.0385C164.707 24.0306 168.934 16.7503 175.894 14.3927C178.996 13.3424 182.362 13.3817 185.617 13.7175C196.084 14.8066 206.052 18.7443 214.437 25.1023C221.337 30.35 227.811 37.5052 236.461 38.066C238.551 38.2018 240.677 37.9267 242.725 38.3661C248.027 39.5021 251.204 44.9641 252.729 50.1546C254.494 56.3059 254.908 62.7661 253.942 69.0923C252.977 75.4185 250.654 81.4612 247.134 86.806C245.176 89.7353 242.789 92.6038 242.307 96.0939C241.835 99.5161 243.293 103.063 242.443 106.414C241.728 109.19 239.584 111.326 237.497 113.294C230.292 120.108 222.928 126.746 215.405 133.21C211.496 120.793 217.231 107.422 216.338 94.4364C215.98 89.378 214.194 83.8553 209.731 81.4691C205.554 79.24 200.216 80.3974 195.989 78.254C191.273 75.8785 189.336 70.2521 185.77 66.3584C179.696 59.714 169.152 58.8566 160.659 61.8573C152.166 64.858 145.223 71.0309 138.506 77.0502L126.297 87.9992C123.914 85.3128 125.722 81.1904 127.011 77.8325C128.934 72.7992 129.355 67.3729 129.227 62.0288C129.123 57.7421 127.644 53.5089 127.73 49.3365C127.901 41.106 134.433 33.0613 142.133 30.5714Z" fill="#865A61"/>
</g>
<defs>
<linearGradient id="paint0_linear" x1="193.545" y1="289.996" x2="193.545" y2="8.49484" gradientUnits="userSpaceOnUse">
<stop stop-color="#808080" stop-opacity="0.25"/>
<stop offset="0.54" stop-color="#808080" stop-opacity="0.12"/>
<stop offset="1" stop-color="#808080" stop-opacity="0.1"/>
</linearGradient>
<clipPath id="clip0">
<rect width="392" height="290" fill="white"/>
</clipPath>
</defs>
</svg>
