<svg width="414" height="286" viewBox="0 0 414 286" fill="none" xmlns="http://www.w3.org/2000/svg">
<g clip-path="url(#clip0)">
<path opacity="0.1" d="M234.171 38.936C207.634 38.9716 182.091 31.444 157.659 23.0817C133.227 14.7193 108.984 5.35523 82.9405 1.3872C66.1913 -1.16342 47.1451 -0.928966 34.0524 8.33213C21.4496 17.2415 17.8001 31.9876 16.0392 45.611C14.7151 55.8597 14.1044 66.6163 19.0639 75.9911C22.5075 82.4991 28.4006 87.8632 32.5542 94.0657C47.0528 115.643 38.3338 143.206 24.2435 165.284C17.6368 175.643 9.8976 185.572 4.90263 196.524C-0.0923344 207.476 -2.14073 219.895 2.95364 230.705C8.00185 241.419 19.4047 249.195 31.6419 254.506C56.4924 265.313 85.4256 267.629 113.581 268.52C175.907 270.499 238.353 266.464 300.632 262.428C323.679 260.936 346.829 259.433 369.4 255.11C381.932 252.712 394.837 249.153 403.723 241.352C415.001 231.448 417.309 215.277 409.101 203.654C395.337 184.158 359.045 180.481 349.175 159.387C343.733 147.774 348.426 134.456 355.338 123.263C370.164 99.2451 395.682 77.7318 396.111 50.8685C396.406 32.4209 383.136 14.4245 363.315 6.40674C342.54 -1.99113 314.214 0.168726 299.659 15.8206C284.692 31.9449 257.601 38.9112 234.171 38.936Z" fill="#6C63FF"/>
<path d="M352.356 229.258C352.356 229.258 347.993 226.377 343.669 228.426C343.669 228.426 345.001 230.991 350.475 230.75L352.356 229.258Z" fill="#6C63FF"/>
<path d="M352.91 229.41C352.91 229.41 354.238 234.469 350.908 237.911C350.908 237.911 348.906 235.826 350.908 230.718L352.91 229.41Z" fill="#6C63FF"/>
<path d="M358.335 224.554C358.335 224.554 358.012 220.252 348.302 221.68C348.302 221.68 348.256 224.455 351.664 225.769C355.072 227.083 356.634 225.975 358.335 224.554Z" fill="#6C63FF"/>
<path d="M358.945 224.526C358.945 224.526 363.049 225.844 359.389 234.956C359.389 234.956 356.68 234.352 356.194 230.725C355.708 227.098 357.149 225.847 358.945 224.526Z" fill="#6C63FF"/>
<path d="M364.427 218.423C364.427 218.423 364.984 211.343 355.061 212.068C355.061 212.068 354.351 218.462 362.676 220.124L364.427 218.423Z" fill="#6C63FF"/>
<path d="M370.984 210.43C370.984 210.43 369.624 202.405 359.705 204.796C359.705 204.796 359.67 211.734 369.365 212.341L370.984 210.43Z" fill="#6C63FF"/>
<path d="M375.776 202.167C375.776 202.167 373.497 194.352 363.67 196.689C363.67 196.689 366.01 203.719 375.123 203.609L375.776 202.167Z" fill="#6C63FF"/>
<path d="M380.328 194.096C380.328 194.096 378.102 185.986 368.612 188.412C368.612 188.412 371.779 196.117 379.699 195.467L380.328 194.096Z" fill="#6C63FF"/>
<path d="M383.26 186.43C383.26 186.43 381.548 176.512 372.702 178.707C372.702 178.707 375.272 187.73 382.61 187.876L383.26 186.43Z" fill="#6C63FF"/>
<path d="M386.011 177.169C386.011 177.169 383.956 167.172 375.006 170.064C375.006 170.064 378.513 179.513 385.376 178.536L386.011 177.169Z" fill="#6C63FF"/>
<path d="M387.701 168.551C387.701 168.551 384.439 158.551 377.52 158.821C377.52 158.821 380.853 169.382 387.123 170.544L387.701 168.551Z" fill="#6C63FF"/>
<path d="M388.794 160.139C388.794 160.139 385.244 148.103 379.614 149.03C379.614 149.03 382.07 158.231 388.595 162.014L388.794 160.139Z" fill="#6C63FF"/>
<path d="M389.412 150.103C389.412 150.103 386.082 140.075 380.537 139.673C380.537 139.673 382.802 149.542 389.302 152.71L389.412 150.103Z" fill="#6C63FF"/>
<path d="M390.083 140.739C390.083 140.739 385.933 130.7 382.273 130.472C382.273 130.472 384.076 140.359 389.728 142.387L390.083 140.739Z" fill="#6C63FF"/>
<path d="M390.541 132.028C390.541 132.028 387.989 121.126 384.321 120.22C384.321 120.22 384.822 129.14 390.172 132.845L390.541 132.028Z" fill="#6C63FF"/>
<path d="M391.926 120.618C391.926 120.618 389.242 111.925 386.271 110.6C386.271 110.6 386.856 120.849 391.241 122.742L391.926 120.618Z" fill="#6C63FF"/>
<path d="M393.072 113.158L393.612 97.833C393.612 97.833 388.056 109.385 392.671 115.847L393.072 113.158Z" fill="#6C63FF"/>
<path d="M397.361 97.9147C397.361 97.9147 401.362 86.7247 402.331 86.0995C402.331 86.0995 394.485 93.3606 395.252 102.7L397.361 97.9147Z" fill="#6C63FF"/>
<path d="M364.697 218.369C364.697 218.369 371.733 217.449 371.523 227.4C371.523 227.4 365.165 228.437 363.088 220.206L364.697 218.369Z" fill="#6C63FF"/>
<path d="M371.317 210.16C371.317 210.16 379.447 210.135 378.772 220.32C378.772 220.32 371.946 221.542 369.695 212.085L371.317 210.16Z" fill="#6C63FF"/>
<path d="M375.854 202.824C375.854 202.824 383.235 199.361 387.957 208.302C387.957 208.302 381.14 211.186 375.201 204.27L375.854 202.824Z" fill="#6C63FF"/>
<path d="M380.491 194.171C380.491 194.171 388.049 190.487 392.487 199.218C392.487 199.218 384.613 201.933 379.866 195.552L380.491 194.171Z" fill="#6C63FF"/>
<path d="M383.164 186.647C383.164 186.647 390.438 179.694 396.242 186.725C396.242 186.725 388.812 192.448 382.83 188.195L383.164 186.647Z" fill="#6C63FF"/>
<path d="M385.599 176.931C385.599 176.931 392.916 169.826 398.674 177.258C398.674 177.258 390.463 183.094 385.336 178.423L385.599 176.931Z" fill="#6C63FF"/>
<path d="M386.966 168.266C386.966 168.266 392.604 159.385 399.242 161.368C399.242 161.368 393.392 170.771 387.03 170.352L386.966 168.266Z" fill="#6C63FF"/>
<path d="M388.627 160.082C388.627 160.082 394.308 148.899 399.682 150.845C399.682 150.845 395.586 159.442 388.482 161.968L388.627 160.082Z" fill="#6C63FF"/>
<path d="M389.022 149.52C389.022 149.52 394.862 140.718 400.332 141.794C400.332 141.794 395.557 150.721 388.454 152.067L389.022 149.52Z" fill="#6C63FF"/>
<path d="M389.476 140.544C389.476 140.544 394.002 130.664 397.68 130.597C397.68 130.597 395.508 140.405 389.781 142.22L389.476 140.544Z" fill="#6C63FF"/>
<path d="M390.364 131.815C390.364 131.815 395.394 121.812 399.175 121.79C399.175 121.79 396.601 130.345 390.531 132.693L390.364 131.815Z" fill="#6C63FF"/>
<path d="M391.12 121.243C391.12 121.243 394.883 112.966 398 112.028C398 112.028 396.118 122.117 391.535 123.439L391.12 121.243Z" fill="#6C63FF"/>
<path d="M393.519 112.856L401.929 100.036C401.929 100.036 399.775 112.682 392.291 115.311L393.519 112.856Z" fill="#6C63FF"/>
<path d="M399.292 98.9485C399.292 98.9485 409.065 92.1989 409.42 91.1083C409.42 91.1083 404.45 100.561 395.22 102.231L399.292 98.9485Z" fill="#6C63FF"/>
<path d="M399.878 95.9112C399.878 95.9112 411.1 85.1154 413.964 85.1261C413.964 85.1261 404.709 85.5488 399.608 95.3357L399.878 95.9112Z" fill="#6C63FF"/>
<path d="M391.23 122.845L391.638 122.899C393.747 106.384 396.821 96.611 400.293 95.4138L400.158 95.0231C396.477 96.302 393.381 105.925 391.23 122.845Z" fill="#444053"/>
<path d="M388.127 162.341L388.745 162.391C388.876 160.849 388.975 159.272 389.043 157.698C389.632 144.028 390.545 131.474 391.745 122.064L391.389 121.62C390.186 131.052 389.015 143.982 388.425 157.673C388.358 159.236 388.258 160.806 388.127 162.341Z" fill="#444053"/>
<path d="M340.84 237.137C340.947 237.091 351.82 232.231 363.106 220.643C369.718 213.856 375.212 206.062 379.383 197.552C384.602 186.92 387.783 173.854 388.848 161.162L388.205 161.464C385.809 189.954 372.848 209.421 362.542 220.025C351.366 231.51 340.613 236.32 340.506 236.366L340.84 237.137Z" fill="#444053"/>
<path d="M368.996 30.2771H27.8753C27.0693 30.2771 26.2964 30.5975 25.7265 31.1677C25.1566 31.738 24.8364 32.5115 24.8364 33.3179V42.1776H372.035V33.3179C372.035 32.5115 371.714 31.738 371.144 31.1677C370.575 30.5975 369.802 30.2771 368.996 30.2771Z" fill="#3F3D56"/>
<path d="M24.8364 42.1776V241.552C24.8364 243.179 25.482 244.738 26.6311 245.888C27.7802 247.038 29.3388 247.684 30.9639 247.684H365.907C367.532 247.684 369.091 247.038 370.24 245.888C371.389 244.738 372.035 243.179 372.035 241.552V42.1776H24.8364Z" fill="white"/>
<path opacity="0.8" d="M30.3356 37.5595C31.1198 37.5595 31.7556 36.9233 31.7556 36.1385C31.7556 35.3538 31.1198 34.7176 30.3356 34.7176C29.5513 34.7176 28.9155 35.3538 28.9155 36.1385C28.9155 36.9233 29.5513 37.5595 30.3356 37.5595Z" fill="#FA5959"/>
<path opacity="0.8" d="M34.2403 37.5595C35.0246 37.5595 35.6604 36.9233 35.6604 36.1385C35.6604 35.3538 35.0246 34.7176 34.2403 34.7176C33.4561 34.7176 32.8203 35.3538 32.8203 36.1385C32.8203 36.9233 33.4561 37.5595 34.2403 37.5595Z" fill="#FED253"/>
<path opacity="0.8" d="M38.1456 37.5595C38.9299 37.5595 39.5657 36.9233 39.5657 36.1385C39.5657 35.3538 38.9299 34.7176 38.1456 34.7176C37.3614 34.7176 36.7256 35.3538 36.7256 36.1385C36.7256 36.9233 37.3614 37.5595 38.1456 37.5595Z" fill="#8CCF4D"/>
<path opacity="0.05" d="M336.147 75.421H57.1104V198.199H336.147V75.421Z" fill="black"/>
<path d="M334.017 76.3517H59.2402V196.423H334.017V76.3517Z" fill="#3F3D56"/>
<path d="M134.147 107.254C128.741 107.254 123.456 108.858 118.96 111.864C114.465 114.87 110.961 119.142 108.892 124.14C106.823 129.138 106.282 134.638 107.337 139.944C108.392 145.25 110.995 150.124 114.818 153.949C118.641 157.775 123.512 160.38 128.814 161.435C134.117 162.491 139.613 161.949 144.608 159.879C149.603 157.808 153.872 154.302 156.876 149.804C159.88 145.306 161.483 140.017 161.483 134.607C161.483 131.015 160.776 127.458 159.402 124.14C158.028 120.821 156.015 117.806 153.476 115.266C150.938 112.726 147.925 110.711 144.608 109.336C141.292 107.962 137.737 107.254 134.147 107.254ZM139.05 135.265V148.217H129.387V135.265C128.049 134.252 127.064 132.844 126.569 131.241C126.074 129.637 126.095 127.918 126.629 126.327C127.163 124.737 128.183 123.354 129.545 122.374C130.906 121.394 132.541 120.867 134.218 120.867C135.895 120.867 137.53 121.394 138.892 122.374C140.254 123.354 141.273 124.737 141.807 126.327C142.341 127.918 142.362 129.637 141.867 131.241C141.373 132.844 140.387 134.252 139.05 135.265Z" fill="#6C63FF"/>
<path opacity="0.05" d="M134.147 107.254C128.741 107.254 123.456 108.858 118.96 111.864C114.465 114.87 110.961 119.142 108.892 124.14C106.823 129.138 106.282 134.638 107.337 139.944C108.392 145.25 110.995 150.124 114.818 153.949C118.641 157.775 123.512 160.38 128.814 161.435C134.117 162.491 139.613 161.949 144.608 159.879C149.603 157.808 153.872 154.302 156.876 149.804C159.88 145.306 161.483 140.017 161.483 134.607C161.483 131.015 160.776 127.458 159.402 124.14C158.028 120.821 156.015 117.806 153.476 115.266C150.938 112.726 147.925 110.711 144.608 109.336C141.292 107.962 137.737 107.254 134.147 107.254ZM139.05 135.265V148.217H129.387V135.265C128.049 134.252 127.064 132.844 126.569 131.241C126.074 129.637 126.095 127.918 126.629 126.327C127.163 124.737 128.183 123.354 129.545 122.374C130.906 121.394 132.541 120.867 134.218 120.867C135.895 120.867 137.53 121.394 138.892 122.374C140.254 123.354 141.273 124.737 141.807 126.327C142.341 127.918 142.362 129.637 141.867 131.241C141.373 132.844 140.387 134.252 139.05 135.265Z" fill="black"/>
<path d="M134.147 99.4387C127.196 99.4387 120.401 101.501 114.621 105.366C108.841 109.23 104.336 114.723 101.676 121.149C99.0162 127.575 98.3202 134.646 99.6763 141.469C101.032 148.291 104.38 154.557 109.295 159.475C114.21 164.394 120.473 167.743 127.29 169.1C134.108 170.457 141.174 169.761 147.597 167.099C154.019 164.437 159.508 159.93 163.369 154.146C167.231 148.363 169.293 141.563 169.293 134.607C169.293 125.28 165.59 116.335 158.999 109.739C152.408 103.144 143.468 99.4387 134.147 99.4387ZM140.448 135.453V152.103H128.023V135.453C126.303 134.15 125.035 132.34 124.399 130.278C123.762 128.216 123.789 126.005 124.476 123.959C125.162 121.913 126.474 120.134 128.225 118.874C129.976 117.614 132.079 116.936 134.236 116.936C136.393 116.936 138.495 117.614 140.246 118.874C141.997 120.134 143.309 121.913 143.995 123.959C144.682 126.005 144.709 128.216 144.072 130.278C143.436 132.34 142.168 134.15 140.448 135.453Z" fill="#6C63FF"/>
<path d="M297.451 129.993H183.848V142.071H297.451V129.993Z" fill="white"/>
<path d="M297.451 152.018H272.955V164.096H297.451V152.018Z" fill="#6C63FF"/>
<path d="M195.031 135.851H192.975L194.804 134.025C194.836 133.991 194.855 133.946 194.855 133.899C194.855 133.852 194.836 133.806 194.804 133.773C194.787 133.756 194.768 133.743 194.746 133.734C194.724 133.725 194.701 133.72 194.678 133.72C194.654 133.72 194.631 133.725 194.609 133.734C194.588 133.743 194.568 133.756 194.552 133.773L192.723 135.602V133.542C192.723 133.495 192.705 133.449 192.671 133.416C192.638 133.383 192.593 133.364 192.546 133.364C192.499 133.365 192.454 133.384 192.421 133.417C192.388 133.45 192.369 133.495 192.368 133.542V135.602L190.544 133.762C190.527 133.745 190.507 133.732 190.486 133.723C190.464 133.714 190.441 133.709 190.418 133.709C190.394 133.709 190.371 133.714 190.349 133.723C190.328 133.732 190.308 133.745 190.292 133.762C190.259 133.796 190.24 133.841 190.24 133.888C190.24 133.935 190.259 133.98 190.292 134.014L192.12 135.84H190.061C190.014 135.841 189.969 135.86 189.936 135.893C189.903 135.926 189.884 135.971 189.883 136.018C189.883 136.065 189.902 136.11 189.935 136.143C189.969 136.177 190.014 136.195 190.061 136.195H192.12L190.292 138.025C190.259 138.059 190.24 138.104 190.24 138.151C190.24 138.198 190.259 138.243 190.292 138.277C190.326 138.309 190.371 138.327 190.418 138.327C190.464 138.327 190.509 138.309 190.544 138.277L192.368 136.448V138.504C192.368 138.552 192.387 138.597 192.42 138.63C192.454 138.663 192.499 138.682 192.546 138.682C192.593 138.682 192.638 138.663 192.671 138.63C192.705 138.597 192.723 138.552 192.723 138.504V136.448L194.552 138.277C194.586 138.309 194.631 138.327 194.678 138.327C194.724 138.327 194.77 138.309 194.804 138.277C194.836 138.243 194.855 138.198 194.855 138.151C194.855 138.104 194.836 138.059 194.804 138.025L192.975 136.195H195.031C195.078 136.195 195.123 136.177 195.156 136.143C195.19 136.11 195.208 136.065 195.208 136.018C195.206 135.973 195.186 135.93 195.153 135.899C195.12 135.868 195.076 135.851 195.031 135.851Z" fill="#6C63FF"/>
<path d="M202.486 135.851H200.43L202.259 134.025C202.292 133.991 202.31 133.946 202.31 133.899C202.31 133.852 202.292 133.806 202.259 133.773C202.242 133.756 202.223 133.743 202.201 133.734C202.179 133.725 202.156 133.72 202.133 133.72C202.109 133.72 202.086 133.725 202.064 133.734C202.043 133.743 202.023 133.756 202.007 133.773L200.178 135.602V133.542C200.178 133.495 200.16 133.449 200.126 133.416C200.093 133.383 200.048 133.364 200.001 133.364C199.954 133.365 199.91 133.384 199.876 133.417C199.843 133.45 199.824 133.495 199.823 133.542V135.602L197.999 133.762C197.982 133.745 197.963 133.732 197.941 133.723C197.919 133.714 197.896 133.709 197.873 133.709C197.849 133.709 197.826 133.714 197.804 133.723C197.783 133.732 197.763 133.745 197.747 133.762C197.714 133.796 197.696 133.841 197.696 133.888C197.696 133.935 197.714 133.98 197.747 134.014L199.575 135.84H197.516C197.469 135.841 197.424 135.86 197.391 135.893C197.358 135.926 197.339 135.971 197.338 136.018C197.338 136.065 197.357 136.11 197.39 136.143C197.424 136.177 197.469 136.195 197.516 136.195H199.575L197.747 138.025C197.714 138.059 197.696 138.104 197.696 138.151C197.696 138.198 197.714 138.243 197.747 138.277C197.781 138.309 197.826 138.327 197.873 138.327C197.919 138.327 197.964 138.309 197.999 138.277L199.823 136.448V138.504C199.823 138.552 199.842 138.597 199.875 138.63C199.909 138.663 199.954 138.682 200.001 138.682C200.048 138.682 200.093 138.663 200.126 138.63C200.16 138.597 200.178 138.552 200.178 138.504V136.448L202.007 138.277C202.041 138.309 202.086 138.327 202.133 138.327C202.18 138.327 202.225 138.309 202.259 138.277C202.292 138.243 202.31 138.198 202.31 138.151C202.31 138.104 202.292 138.059 202.259 138.025L200.43 136.195H202.486C202.533 136.195 202.578 136.177 202.611 136.143C202.645 136.11 202.663 136.065 202.663 136.018C202.661 135.973 202.641 135.93 202.608 135.899C202.575 135.868 202.531 135.851 202.486 135.851Z" fill="#6C63FF"/>
<path d="M209.941 135.851H207.886L209.714 134.025C209.747 133.991 209.765 133.946 209.765 133.899C209.765 133.852 209.747 133.806 209.714 133.773C209.697 133.756 209.678 133.743 209.656 133.734C209.634 133.725 209.611 133.72 209.588 133.72C209.564 133.72 209.541 133.725 209.52 133.734C209.498 133.743 209.478 133.756 209.462 133.773L207.634 135.602V133.542C207.634 133.495 207.615 133.449 207.582 133.416C207.548 133.383 207.503 133.364 207.456 133.364C207.409 133.365 207.365 133.384 207.332 133.417C207.298 133.45 207.279 133.495 207.279 133.542V135.602L205.454 133.762C205.437 133.745 205.418 133.732 205.396 133.723C205.374 133.714 205.351 133.709 205.328 133.709C205.304 133.709 205.281 133.714 205.259 133.723C205.238 133.732 205.218 133.745 205.202 133.762C205.169 133.796 205.151 133.841 205.151 133.888C205.151 133.935 205.169 133.98 205.202 134.014L207.03 135.84H204.971C204.924 135.841 204.88 135.86 204.846 135.893C204.813 135.926 204.794 135.971 204.793 136.018C204.793 136.065 204.812 136.11 204.845 136.143C204.879 136.177 204.924 136.195 204.971 136.195H207.03L205.202 138.025C205.169 138.059 205.151 138.104 205.151 138.151C205.151 138.198 205.169 138.243 205.202 138.277C205.236 138.309 205.281 138.327 205.328 138.327C205.375 138.327 205.42 138.309 205.454 138.277L207.279 136.448V138.504C207.279 138.552 207.297 138.597 207.331 138.63C207.364 138.663 207.409 138.682 207.456 138.682C207.503 138.682 207.548 138.663 207.582 138.63C207.615 138.597 207.634 138.552 207.634 138.504V136.448L209.462 138.277C209.496 138.309 209.541 138.327 209.588 138.327C209.635 138.327 209.68 138.309 209.714 138.277C209.747 138.243 209.765 138.198 209.765 138.151C209.765 138.104 209.747 138.059 209.714 138.025L207.886 136.195H209.941C209.988 136.195 210.033 136.177 210.067 136.143C210.1 136.11 210.119 136.065 210.119 136.018C210.116 135.973 210.096 135.93 210.063 135.899C210.03 135.868 209.986 135.851 209.941 135.851Z" fill="#6C63FF"/>
<path d="M217.397 135.851H215.341L217.169 134.025C217.202 133.991 217.22 133.946 217.22 133.899C217.22 133.852 217.202 133.806 217.169 133.773C217.153 133.756 217.133 133.743 217.112 133.734C217.09 133.725 217.067 133.72 217.043 133.72C217.02 133.72 216.997 133.725 216.975 133.734C216.953 133.743 216.934 133.756 216.917 133.773L215.089 135.602V133.542C215.089 133.495 215.07 133.449 215.037 133.416C215.004 133.383 214.959 133.364 214.912 133.364C214.865 133.365 214.82 133.384 214.787 133.417C214.754 133.45 214.735 133.495 214.734 133.542V135.602L212.909 133.762C212.893 133.745 212.873 133.732 212.852 133.723C212.83 133.714 212.807 133.709 212.783 133.709C212.76 133.709 212.737 133.714 212.715 133.723C212.693 133.732 212.674 133.745 212.657 133.762C212.625 133.796 212.606 133.841 212.606 133.888C212.606 133.935 212.625 133.98 212.657 134.014L214.486 135.84H212.427C212.38 135.841 212.335 135.86 212.302 135.893C212.269 135.926 212.25 135.971 212.249 136.018C212.249 136.065 212.268 136.11 212.301 136.143C212.334 136.177 212.379 136.195 212.427 136.195H214.486L212.657 138.025C212.625 138.059 212.606 138.104 212.606 138.151C212.606 138.198 212.625 138.243 212.657 138.277C212.691 138.309 212.736 138.327 212.783 138.327C212.83 138.327 212.875 138.309 212.909 138.277L214.734 136.448V138.504C214.734 138.552 214.753 138.597 214.786 138.63C214.819 138.663 214.864 138.682 214.912 138.682C214.959 138.682 215.004 138.663 215.037 138.63C215.07 138.597 215.089 138.552 215.089 138.504V136.448L216.917 138.277C216.952 138.309 216.997 138.327 217.043 138.327C217.09 138.327 217.135 138.309 217.169 138.277C217.202 138.243 217.22 138.198 217.22 138.151C217.22 138.104 217.202 138.059 217.169 138.025L215.341 136.195H217.397C217.444 136.195 217.489 136.177 217.522 136.143C217.555 136.11 217.574 136.065 217.574 136.018C217.571 135.973 217.552 135.93 217.519 135.899C217.486 135.868 217.442 135.851 217.397 135.851Z" fill="#6C63FF"/>
<path d="M224.852 135.851H222.796L224.624 134.025C224.657 133.991 224.676 133.946 224.676 133.899C224.676 133.852 224.657 133.806 224.624 133.773C224.608 133.756 224.588 133.743 224.567 133.734C224.545 133.725 224.522 133.72 224.498 133.72C224.475 133.72 224.452 133.725 224.43 133.734C224.409 133.743 224.389 133.756 224.372 133.773L222.544 135.602V133.542C222.544 133.495 222.525 133.449 222.492 133.416C222.459 133.383 222.414 133.364 222.367 133.364C222.32 133.365 222.275 133.384 222.242 133.417C222.209 133.45 222.19 133.495 222.189 133.542V135.602L220.364 133.762C220.348 133.745 220.328 133.732 220.307 133.723C220.285 133.714 220.262 133.709 220.238 133.709C220.215 133.709 220.192 133.714 220.17 133.723C220.148 133.732 220.129 133.745 220.112 133.762C220.08 133.796 220.061 133.841 220.061 133.888C220.061 133.935 220.08 133.98 220.112 134.014L221.941 135.84H219.882C219.835 135.841 219.79 135.86 219.757 135.893C219.724 135.926 219.705 135.971 219.704 136.018C219.704 136.065 219.723 136.11 219.756 136.143C219.789 136.177 219.835 136.195 219.882 136.195H221.941L220.112 138.025C220.08 138.059 220.061 138.104 220.061 138.151C220.061 138.198 220.08 138.243 220.112 138.277C220.147 138.309 220.192 138.327 220.238 138.327C220.285 138.327 220.33 138.309 220.364 138.277L222.189 136.448V138.504C222.189 138.552 222.208 138.597 222.241 138.63C222.274 138.663 222.32 138.682 222.367 138.682C222.414 138.682 222.459 138.663 222.492 138.63C222.525 138.597 222.544 138.552 222.544 138.504V136.448L224.372 138.277C224.407 138.309 224.452 138.327 224.498 138.327C224.545 138.327 224.59 138.309 224.624 138.277C224.657 138.243 224.676 138.198 224.676 138.151C224.676 138.104 224.657 138.059 224.624 138.025L222.796 136.195H224.852C224.899 136.195 224.944 136.177 224.977 136.143C225.01 136.11 225.029 136.065 225.029 136.018C225.026 135.973 225.007 135.93 224.974 135.899C224.941 135.868 224.897 135.851 224.852 135.851Z" fill="#6C63FF"/>
<path d="M232.307 135.851H230.251L232.08 134.025C232.112 133.991 232.131 133.946 232.131 133.899C232.131 133.852 232.112 133.806 232.08 133.773C232.063 133.756 232.043 133.743 232.022 133.734C232 133.725 231.977 133.72 231.954 133.72C231.93 133.72 231.907 133.725 231.885 133.734C231.864 133.743 231.844 133.756 231.828 133.773L229.999 135.602V133.542C229.999 133.495 229.981 133.449 229.947 133.416C229.914 133.383 229.869 133.364 229.822 133.364C229.775 133.365 229.73 133.384 229.697 133.417C229.664 133.45 229.645 133.495 229.644 133.542V135.602L227.819 133.762C227.803 133.745 227.783 133.732 227.762 133.723C227.74 133.714 227.717 133.709 227.693 133.709C227.67 133.709 227.647 133.714 227.625 133.723C227.604 133.732 227.584 133.745 227.567 133.762C227.535 133.796 227.516 133.841 227.516 133.888C227.516 133.935 227.535 133.98 227.567 134.014L229.396 135.84H227.337C227.29 135.841 227.245 135.86 227.212 135.893C227.179 135.926 227.16 135.971 227.159 136.018C227.159 136.065 227.178 136.11 227.211 136.143C227.244 136.177 227.29 136.195 227.337 136.195H229.396L227.567 138.025C227.535 138.059 227.516 138.104 227.516 138.151C227.516 138.198 227.535 138.243 227.567 138.277C227.602 138.309 227.647 138.327 227.693 138.327C227.74 138.327 227.785 138.309 227.819 138.277L229.644 136.448V138.504C229.644 138.552 229.663 138.597 229.696 138.63C229.73 138.663 229.775 138.682 229.822 138.682C229.869 138.682 229.914 138.663 229.947 138.63C229.981 138.597 229.999 138.552 229.999 138.504V136.448L231.828 138.277C231.862 138.309 231.907 138.327 231.954 138.327C232 138.327 232.045 138.309 232.08 138.277C232.112 138.243 232.131 138.198 232.131 138.151C232.131 138.104 232.112 138.059 232.08 138.025L230.251 136.195H232.307C232.354 136.195 232.399 136.177 232.432 136.143C232.466 136.11 232.484 136.065 232.484 136.018C232.482 135.973 232.462 135.93 232.429 135.899C232.396 135.868 232.352 135.851 232.307 135.851Z" fill="#6C63FF"/>
<path d="M239.762 135.851H237.706L239.535 134.025C239.567 133.991 239.586 133.946 239.586 133.899C239.586 133.852 239.567 133.806 239.535 133.773C239.518 133.756 239.499 133.743 239.477 133.734C239.455 133.725 239.432 133.72 239.409 133.72C239.385 133.72 239.362 133.725 239.34 133.734C239.319 133.743 239.299 133.756 239.283 133.773L237.454 135.602V133.542C237.454 133.495 237.436 133.449 237.402 133.416C237.369 133.383 237.324 133.364 237.277 133.364C237.23 133.365 237.185 133.384 237.152 133.417C237.119 133.45 237.1 133.495 237.099 133.542V135.602L235.275 133.762C235.258 133.745 235.238 133.732 235.217 133.723C235.195 133.714 235.172 133.709 235.149 133.709C235.125 133.709 235.102 133.714 235.08 133.723C235.059 133.732 235.039 133.745 235.023 133.762C234.99 133.796 234.971 133.841 234.971 133.888C234.971 133.935 234.99 133.98 235.023 134.014L236.851 135.84H234.792C234.745 135.841 234.7 135.86 234.667 135.893C234.634 135.926 234.615 135.971 234.614 136.018C234.614 136.065 234.633 136.11 234.666 136.143C234.7 136.177 234.745 136.195 234.792 136.195H236.851L235.023 138.025C234.99 138.059 234.971 138.104 234.971 138.151C234.971 138.198 234.99 138.243 235.023 138.277C235.057 138.309 235.102 138.327 235.149 138.327C235.195 138.327 235.24 138.309 235.275 138.277L237.099 136.448V138.504C237.099 138.552 237.118 138.597 237.151 138.63C237.185 138.663 237.23 138.682 237.277 138.682C237.324 138.682 237.369 138.663 237.402 138.63C237.436 138.597 237.454 138.552 237.454 138.504V136.448L239.283 138.277C239.317 138.309 239.362 138.327 239.409 138.327C239.455 138.327 239.5 138.309 239.535 138.277C239.567 138.243 239.586 138.198 239.586 138.151C239.586 138.104 239.567 138.059 239.535 138.025L237.706 136.195H239.762C239.809 136.195 239.854 136.177 239.887 136.143C239.921 136.11 239.939 136.065 239.939 136.018C239.937 135.973 239.917 135.93 239.884 135.899C239.851 135.868 239.807 135.851 239.762 135.851Z" fill="#6C63FF"/>
<path d="M247.217 135.851H245.161L246.99 134.025C247.022 133.991 247.041 133.946 247.041 133.899C247.041 133.852 247.022 133.806 246.99 133.773C246.973 133.756 246.954 133.743 246.932 133.734C246.91 133.725 246.887 133.72 246.864 133.72C246.84 133.72 246.817 133.725 246.795 133.734C246.774 133.743 246.754 133.756 246.738 133.773L244.909 135.602V133.542C244.909 133.495 244.891 133.449 244.857 133.416C244.824 133.383 244.779 133.364 244.732 133.364C244.685 133.365 244.64 133.384 244.607 133.417C244.574 133.45 244.555 133.495 244.554 133.542V135.602L242.73 133.762C242.713 133.745 242.694 133.732 242.672 133.723C242.65 133.714 242.627 133.709 242.604 133.709C242.58 133.709 242.557 133.714 242.535 133.723C242.514 133.732 242.494 133.745 242.478 133.762C242.445 133.796 242.427 133.841 242.427 133.888C242.427 133.935 242.445 133.98 242.478 134.014L244.306 135.84H242.247C242.2 135.841 242.155 135.86 242.122 135.893C242.089 135.926 242.07 135.971 242.069 136.018C242.069 136.065 242.088 136.11 242.121 136.143C242.155 136.177 242.2 136.195 242.247 136.195H244.306L242.478 138.025C242.445 138.059 242.427 138.104 242.427 138.151C242.427 138.198 242.445 138.243 242.478 138.277C242.512 138.309 242.557 138.327 242.604 138.327C242.65 138.327 242.695 138.309 242.73 138.277L244.554 136.448V138.504C244.554 138.552 244.573 138.597 244.606 138.63C244.64 138.663 244.685 138.682 244.732 138.682C244.779 138.682 244.824 138.663 244.857 138.63C244.891 138.597 244.909 138.552 244.909 138.504V136.448L246.738 138.277C246.772 138.309 246.817 138.327 246.864 138.327C246.91 138.327 246.956 138.309 246.99 138.277C247.022 138.243 247.041 138.198 247.041 138.151C247.041 138.104 247.022 138.059 246.99 138.025L245.161 136.195H247.217C247.264 136.195 247.309 136.177 247.342 136.143C247.376 136.11 247.394 136.065 247.394 136.018C247.392 135.973 247.372 135.93 247.339 135.899C247.306 135.868 247.262 135.851 247.217 135.851Z" fill="#6C63FF"/>
<path d="M254.673 135.851H252.617L254.445 134.025C254.478 133.991 254.496 133.946 254.496 133.899C254.496 133.852 254.478 133.806 254.445 133.773C254.429 133.756 254.409 133.743 254.388 133.734C254.366 133.725 254.343 133.72 254.319 133.72C254.296 133.72 254.273 133.725 254.251 133.734C254.229 133.743 254.21 133.756 254.193 133.773L252.365 135.602V133.542C252.365 133.495 252.346 133.449 252.313 133.416C252.28 133.383 252.235 133.364 252.187 133.364C252.141 133.365 252.096 133.384 252.063 133.417C252.03 133.45 252.011 133.495 252.01 133.542V135.602L250.185 133.762C250.169 133.745 250.149 133.732 250.127 133.723C250.106 133.714 250.083 133.709 250.059 133.709C250.036 133.709 250.013 133.714 249.991 133.723C249.969 133.732 249.95 133.745 249.933 133.762C249.9 133.796 249.882 133.841 249.882 133.888C249.882 133.935 249.9 133.98 249.933 134.014L251.761 135.84H249.702C249.656 135.841 249.611 135.86 249.578 135.893C249.545 135.926 249.526 135.971 249.525 136.018C249.525 136.065 249.544 136.11 249.577 136.143C249.61 136.177 249.655 136.195 249.702 136.195H251.761L249.933 138.025C249.9 138.059 249.882 138.104 249.882 138.151C249.882 138.198 249.9 138.243 249.933 138.277C249.967 138.309 250.012 138.327 250.059 138.327C250.106 138.327 250.151 138.309 250.185 138.277L252.01 136.448V138.504C252.01 138.552 252.029 138.597 252.062 138.63C252.095 138.663 252.14 138.682 252.187 138.682C252.235 138.682 252.28 138.663 252.313 138.63C252.346 138.597 252.365 138.552 252.365 138.504V136.448L254.193 138.277C254.227 138.309 254.272 138.327 254.319 138.327C254.366 138.327 254.411 138.309 254.445 138.277C254.478 138.243 254.496 138.198 254.496 138.151C254.496 138.104 254.478 138.059 254.445 138.025L252.617 136.195H254.673C254.72 136.195 254.765 136.177 254.798 136.143C254.831 136.11 254.85 136.065 254.85 136.018C254.847 135.973 254.827 135.93 254.794 135.899C254.761 135.868 254.718 135.851 254.673 135.851Z" fill="#6C63FF"/>
<path d="M262.128 135.851H260.072L261.9 134.025C261.933 133.991 261.951 133.946 261.951 133.899C261.951 133.852 261.933 133.806 261.9 133.773C261.884 133.756 261.864 133.743 261.843 133.734C261.821 133.725 261.798 133.72 261.774 133.72C261.751 133.72 261.728 133.725 261.706 133.734C261.684 133.743 261.665 133.756 261.648 133.773L259.82 135.602V133.542C259.82 133.495 259.801 133.449 259.768 133.416C259.735 133.383 259.69 133.364 259.643 133.364C259.596 133.365 259.551 133.384 259.518 133.417C259.485 133.45 259.466 133.495 259.465 133.542V135.602L257.64 133.762C257.624 133.745 257.604 133.732 257.583 133.723C257.561 133.714 257.538 133.709 257.514 133.709C257.491 133.709 257.468 133.714 257.446 133.723C257.424 133.732 257.405 133.745 257.388 133.762C257.355 133.796 257.337 133.841 257.337 133.888C257.337 133.935 257.355 133.98 257.388 134.014L259.217 135.84H257.157C257.111 135.841 257.066 135.86 257.033 135.893C257 135.926 256.981 135.971 256.98 136.018C256.98 136.065 256.999 136.11 257.032 136.143C257.065 136.177 257.11 136.195 257.157 136.195H259.217L257.388 138.025C257.355 138.059 257.337 138.104 257.337 138.151C257.337 138.198 257.355 138.243 257.388 138.277C257.422 138.309 257.467 138.327 257.514 138.327C257.561 138.327 257.606 138.309 257.64 138.277L259.465 136.448V138.504C259.465 138.552 259.484 138.597 259.517 138.63C259.55 138.663 259.595 138.682 259.643 138.682C259.69 138.682 259.735 138.663 259.768 138.63C259.801 138.597 259.82 138.552 259.82 138.504V136.448L261.648 138.277C261.682 138.309 261.728 138.327 261.774 138.327C261.821 138.327 261.866 138.309 261.9 138.277C261.933 138.243 261.951 138.198 261.951 138.151C261.951 138.104 261.933 138.059 261.9 138.025L260.072 136.195H262.128C262.175 136.195 262.22 136.177 262.253 136.143C262.286 136.11 262.305 136.065 262.305 136.018C262.302 135.973 262.282 135.93 262.249 135.899C262.216 135.868 262.173 135.851 262.128 135.851Z" fill="#6C63FF"/>
<path d="M269.583 135.851H267.527L269.355 134.025C269.388 133.991 269.406 133.946 269.406 133.899C269.406 133.852 269.388 133.806 269.355 133.773C269.339 133.756 269.319 133.743 269.298 133.734C269.276 133.725 269.253 133.72 269.229 133.72C269.206 133.72 269.183 133.725 269.161 133.734C269.14 133.743 269.12 133.756 269.103 133.773L267.275 135.602V133.542C267.275 133.495 267.256 133.449 267.223 133.416C267.19 133.383 267.145 133.364 267.098 133.364C267.051 133.365 267.006 133.384 266.973 133.417C266.94 133.45 266.921 133.495 266.92 133.542V135.602L265.095 133.762C265.079 133.745 265.059 133.732 265.038 133.723C265.016 133.714 264.993 133.709 264.969 133.709C264.946 133.709 264.923 133.714 264.901 133.723C264.879 133.732 264.86 133.745 264.843 133.762C264.811 133.796 264.792 133.841 264.792 133.888C264.792 133.935 264.811 133.98 264.843 134.014L266.672 135.84H264.613C264.566 135.841 264.521 135.86 264.488 135.893C264.455 135.926 264.436 135.971 264.435 136.018C264.435 136.065 264.454 136.11 264.487 136.143C264.52 136.177 264.565 136.195 264.613 136.195H266.672L264.843 138.025C264.811 138.059 264.792 138.104 264.792 138.151C264.792 138.198 264.811 138.243 264.843 138.277C264.877 138.309 264.923 138.327 264.969 138.327C265.016 138.327 265.061 138.309 265.095 138.277L266.92 136.448V138.504C266.92 138.552 266.939 138.597 266.972 138.63C267.005 138.663 267.051 138.682 267.098 138.682C267.145 138.682 267.19 138.663 267.223 138.63C267.256 138.597 267.275 138.552 267.275 138.504V136.448L269.103 138.277C269.138 138.309 269.183 138.327 269.229 138.327C269.276 138.327 269.321 138.309 269.355 138.277C269.388 138.243 269.406 138.198 269.406 138.151C269.406 138.104 269.388 138.059 269.355 138.025L267.527 136.195H269.583C269.63 136.195 269.675 136.177 269.708 136.143C269.741 136.11 269.76 136.065 269.76 136.018C269.757 135.973 269.738 135.93 269.705 135.899C269.672 135.868 269.628 135.851 269.583 135.851Z" fill="#6C63FF"/>
<path d="M326.735 179.066C326.725 178.636 326.672 178.209 326.576 177.79C326.256 176.59 325.536 175.137 324.35 174.774C323.126 174.399 321.943 173.899 320.821 173.282C320.608 169.474 321.481 165.577 320.53 161.886C320.175 160.536 319.589 159.243 319.433 157.861C319.238 156.142 319.706 154.309 319.021 152.725C318.482 151.474 317.296 150.593 316.021 150.131C314.747 149.67 313.373 149.545 312.02 149.421C310.316 149.282 304.8 148.629 302.875 150.153C302.743 150.256 302.623 150.375 302.52 150.508C302.478 150.567 302.44 150.628 302.407 150.693L302.389 150.721C302.35 150.795 302.318 150.872 302.293 150.952C302.266 151.039 302.246 151.128 302.233 151.218C302.233 151.247 302.233 151.275 302.233 151.304C302.233 151.332 302.233 151.428 302.233 151.492V151.588C302.233 151.652 302.233 151.716 302.233 151.783C302.233 151.851 302.233 151.833 302.233 151.858C302.258 152.178 302.304 152.497 302.304 152.813C302.308 152.971 302.293 153.128 302.261 153.282C302.143 153.701 301.943 154.093 301.672 154.433L301.608 154.526C301.569 154.583 301.53 154.636 301.494 154.693C301.459 154.75 301.43 154.792 301.402 154.842C301.374 154.892 301.345 154.924 301.32 154.97C301.286 155.028 301.255 155.089 301.228 155.151C301.228 155.186 301.189 155.218 301.175 155.254C301.13 155.35 301.095 155.45 301.068 155.552C300.985 155.861 300.978 156.185 301.047 156.497C301.143 156.896 301.307 157.275 301.533 157.616C301.622 157.762 301.718 157.904 301.817 158.046L302.066 158.384C302.02 158.713 301.995 159.045 301.991 159.378C301.992 160.491 302.244 161.589 302.73 162.589C303.216 163.59 303.922 164.467 304.796 165.155C304.937 166.655 304.921 168.165 304.75 169.662C304.718 169.975 304.679 170.291 304.636 170.604C304.594 170.917 304.562 171.123 304.519 171.382C304 171.456 303.47 171.416 302.968 171.265C302.736 171.161 302.499 171.07 302.258 170.991C301.225 170.732 300.17 171.762 299.148 171.449C299.148 171.499 299.119 171.545 299.102 171.591C298.888 171.459 298.643 171.386 298.392 171.382C297.785 171.353 297.291 170.913 296.851 170.497L295.498 169.222C295.41 169.144 295.331 169.056 295.264 168.959C295.191 168.821 295.136 168.674 295.101 168.522C294.873 167.787 294.323 167.201 293.791 166.643C293.69 166.516 293.556 166.419 293.404 166.362C293.345 166.353 293.285 166.353 293.226 166.362C293.19 166.313 293.151 166.265 293.109 166.22C293.017 166.115 292.919 166.015 292.814 165.922C292.168 165.325 292.104 164.813 291.544 164.146C291.054 163.509 290.611 162.838 290.216 162.139C290.17 161.766 290.106 161.382 290.028 160.995C289.849 160.108 289.588 159.24 289.25 158.401L288.54 156.828L288.458 156.909C287.944 156.142 287.393 155.723 286.9 155.822C286.073 155.993 285.665 157.599 285.796 159.698L286.08 161.829C286.08 161.883 286.105 161.936 286.119 161.989C286.068 162.242 286.042 162.499 286.041 162.757C286.041 163.055 286.318 163.275 286.463 163.542C286.696 163.903 286.82 164.323 286.818 164.753C286.801 164.906 286.754 165.051 286.747 165.201C286.767 165.534 286.883 165.855 287.081 166.124L288.856 169.108L289.211 169.734L289.232 169.762C289.344 169.98 289.508 170.168 289.708 170.309C289.778 171.056 289.976 171.786 290.294 172.465C290.354 172.6 290.422 172.728 290.493 172.856C290.97 173.641 291.532 174.371 292.168 175.034L293.013 175.982C293.848 176.913 294.682 177.847 295.587 178.707C295.911 179.052 296.303 179.326 296.737 179.513C296.95 179.598 297.182 179.626 297.409 179.593C297.636 179.56 297.85 179.467 298.03 179.325C298.03 179.766 298.03 180.206 298.03 180.647C298.161 180.655 298.289 180.698 298.398 180.772C298.508 180.845 298.596 180.947 298.653 181.066C298.71 181.185 298.734 181.317 298.723 181.449C298.712 181.581 298.666 181.707 298.59 181.815C297.845 183.73 297.092 185.662 295.963 187.378C296.76 187.85 297.499 188.414 298.164 189.059C298.596 189.537 298.98 190.057 299.311 190.611C299.343 190.874 299.368 191.133 299.382 191.393C299.645 195.627 298.008 199.829 296.542 203.865C296.12 205.009 295.658 206.206 295.694 207.396C295.415 207.568 295.15 207.759 294.898 207.968C295.189 208.728 295.076 209.407 295.044 210.22C295.033 210.708 294.933 211.19 294.749 211.641C294.595 211.954 294.424 212.259 294.238 212.554C293.319 214.178 293.116 216.107 292.932 217.961C292.822 219.08 293.255 220.448 292.747 221.449C291.87 223.169 291.093 225.002 290.972 226.913C290.968 227.343 290.913 227.771 290.809 228.188C290.699 228.543 290.503 228.845 290.404 229.194C290.302 229.66 290.278 230.14 290.333 230.615C290.4 232.317 290.148 234.018 289.587 235.627C289.144 236.895 288.654 238.252 289.002 239.556C288.145 240.456 287.616 241.619 287.5 242.856C287.491 243.173 287.453 243.488 287.386 243.797C287.278 244.114 287.135 244.418 286.96 244.703C286.246 246.006 285.911 247.483 285.995 248.966C284.93 250.412 284.397 252.195 284.081 253.968C283.765 255.741 283.627 257.545 283.222 259.297C282.683 261.613 281.706 263.954 281.515 266.327C280.364 267.062 279.867 268.487 279.647 269.833C279.427 271.179 279.392 272.593 278.827 273.837C278.536 274.483 278.117 275.062 277.84 275.723C277.646 276.249 277.503 276.793 277.414 277.346C277.244 278.213 277.095 279.179 277.304 280.011C277.003 280.33 276.652 280.597 276.264 280.803C276.321 280.583 276.367 280.362 276.406 280.139C275.49 280.97 273.829 280.678 273.097 281.677C272.878 281.999 272.792 282.393 272.858 282.777C272.925 283.161 273.138 283.504 273.452 283.734C273.681 283.873 273.929 283.98 274.187 284.05C275.962 284.618 277.787 285.19 279.612 284.888C279.827 284.865 280.036 284.798 280.226 284.693C280.463 284.518 280.658 284.292 280.797 284.032C281.071 283.599 281.344 283.165 281.614 282.732C282.268 282.927 282.933 283.082 283.606 283.197C283.673 283.766 283.723 284.334 283.748 284.902C284.103 284.973 284.578 284.995 284.745 284.664C284.796 284.539 284.816 284.404 284.805 284.27C284.805 284.018 284.841 283.684 284.862 283.343H284.933C286.016 283.387 287.094 283.168 288.075 282.707C287.695 279.559 288.948 276.483 290.035 273.506C291.181 270.373 292.165 267.183 293.155 263.993C293.865 261.748 294.65 259.574 295.346 257.325C296.221 254.483 297.101 251.641 297.983 248.799C298.367 247.549 298.754 246.313 299.194 245.069C300.121 242.553 301.22 240.105 302.485 237.741C302.84 237.069 303.195 236.405 303.486 235.709C303.841 234.86 304.093 233.972 304.377 233.094C304.996 231.294 305.741 229.539 306.607 227.844C306.631 227.798 306.649 227.755 306.674 227.712C306.962 228.888 307.249 230.082 307.441 231.265C307.7 232.715 307.721 234.198 307.501 235.655C307.331 236.647 307.008 237.627 307.047 238.632C307.1 240.021 307.842 241.282 308.208 242.622C308.443 243.624 308.577 244.647 308.605 245.677C308.705 247.275 309.571 249.069 308.96 250.551C307.061 255.243 307.98 260.544 306.898 265.471C306.34 268 304.633 270.377 304.768 272.963C304.862 274.798 305.023 276.629 305.25 278.455C305.305 279.031 305.455 279.594 305.694 280.121C305.836 280.398 305.998 280.664 306.18 280.916C306.024 280.977 305.893 281.137 305.779 281.474C305.488 282.362 305.779 283.464 306.567 283.961C306.889 284.133 307.235 284.253 307.593 284.316C308.076 284.453 308.576 284.523 309.077 284.522C309.234 284.514 309.389 284.495 309.542 284.465C310.091 284.696 310.652 284.898 311.222 285.069C311.222 285.215 311.25 285.361 311.268 285.506C311.269 285.582 311.286 285.657 311.317 285.727C311.349 285.796 311.395 285.857 311.452 285.908C311.541 285.949 311.639 285.966 311.736 285.957H313.664C313.664 285.797 313.664 285.634 313.664 285.474C313.885 285.497 314.108 285.474 314.319 285.405C314.53 285.337 314.724 285.225 314.889 285.076C315.06 284.859 315.181 284.607 315.244 284.337C315.769 282.554 316.291 280.77 316.809 278.984C317.431 277.01 317.69 274.94 317.573 272.874C316.888 266.327 318.393 259.758 317.903 253.194C317.608 249.248 317.811 245.281 318.506 241.385C318.666 240.504 318.861 239.609 318.932 238.732C319.089 237.076 318.897 235.403 319.014 233.758C319.053 233.183 319.131 232.611 319.202 232.039C319.689 228.489 319.944 224.912 319.965 221.329C319.955 220.141 319.881 218.956 319.745 217.776C320.115 217.682 320.451 217.485 320.715 217.208C321.03 216.796 320.949 216.217 320.945 215.691C320.945 214.433 321.474 213.247 321.9 212.06C322.447 210.424 322.895 208.756 323.242 207.066C323.609 205.704 323.809 204.302 323.839 202.892C323.839 202.75 323.832 202.607 323.817 202.465C323.951 202.373 324.063 202.251 324.144 202.11C324.237 201.902 324.294 201.68 324.314 201.453C324.442 200.547 324.573 199.638 324.701 198.728C324.796 198.077 324.889 197.427 324.982 196.778L326.111 188.895C326.207 188.21 326.306 187.528 326.402 186.845L326.696 184.806C326.728 184.565 326.764 184.323 326.789 184.096C327.655 182.647 326.828 180.714 326.735 179.066ZM317.317 208.579C316.898 207.584 316.508 206.565 316.607 205.492H316.568C316.661 205.162 316.645 204.81 316.522 204.49C316.412 204.231 316.22 204.011 316.103 203.751C315.977 203.435 315.912 203.097 315.911 202.757C315.823 200.596 315.994 198.433 316.419 196.313C316.465 196.064 316.515 195.812 316.561 195.563C316.71 195.477 316.846 195.371 316.966 195.247C317.152 195.034 317.307 194.794 317.424 194.536C317.825 193.73 318.19 192.909 318.528 192.075C318.638 191.805 318.797 191.492 319.071 191.424C319.014 193.503 319.227 195.623 318.382 197.499C318.222 197.802 318.102 198.124 318.027 198.458C317.949 198.988 318.169 199.524 318.091 200.05C318.052 200.323 317.935 200.575 317.889 200.845C317.854 200.978 317.854 201.117 317.89 201.25C317.927 201.382 317.997 201.502 318.095 201.599C318.142 201.632 318.193 201.658 318.247 201.677C318.226 201.819 318.208 201.964 318.194 202.103C318.166 202.394 318.151 202.668 318.134 202.838C318.052 203.707 318.02 204.58 318.038 205.453C318.038 206.394 318.073 207.336 318.059 208.295C318.072 208.57 318.026 208.845 317.924 209.101C317.854 209.233 317.763 209.353 317.654 209.456C317.551 209.137 317.438 208.856 317.317 208.579Z" fill="url(#paint0_linear)"/>
<path d="M289.293 167.36C290.377 167.138 290.745 164.47 290.117 161.401C289.488 158.331 288.1 156.023 287.017 156.245C285.934 156.467 285.565 159.135 286.194 162.205C286.822 165.274 288.21 167.583 289.293 167.36Z" fill="#FBBEBE"/>
<path d="M305.836 281.542C305.545 282.423 305.836 283.524 306.624 284.004C306.944 284.174 307.287 284.294 307.643 284.359C308.125 284.495 308.623 284.563 309.123 284.561C309.738 284.533 310.327 284.291 310.941 284.206C311.012 284.188 311.087 284.198 311.151 284.234C311.181 284.267 311.204 284.307 311.218 284.35C311.231 284.393 311.235 284.438 311.229 284.483C311.235 284.832 311.261 285.181 311.307 285.528C311.307 285.604 311.324 285.679 311.356 285.748C311.388 285.817 311.434 285.879 311.491 285.929C311.58 285.97 311.678 285.987 311.775 285.979H313.7C313.743 284.287 313.558 282.597 313.149 280.956C313.123 280.83 313.075 280.71 313.007 280.6C312.844 280.421 312.629 280.297 312.393 280.245C311.923 280.049 311.415 279.961 310.906 279.986C310.284 280.067 309.766 280.469 309.237 280.803C308.708 281.137 307.987 281.432 307.345 281.261C306.702 281.091 306.166 280.554 305.836 281.542Z" fill="#3F3D56"/>
<path d="M277.584 279.982C277.043 280.562 276.38 281.013 275.643 281.304L275.316 281.46C275.271 281.477 275.232 281.508 275.206 281.549C275.2 281.576 275.2 281.605 275.206 281.633C275.212 281.66 275.224 281.686 275.241 281.709C275.513 282.129 275.915 282.45 276.385 282.621C276.855 282.792 277.369 282.805 277.847 282.657C278.059 282.604 278.254 282.502 278.419 282.359C278.689 282.038 278.844 281.635 278.859 281.215C278.966 280.782 278.948 280.327 278.806 279.904C278.312 278.792 278.131 279.297 277.584 279.982Z" fill="#FBBEBE"/>
<path d="M284.961 284.359C284.972 284.493 284.952 284.628 284.901 284.753C284.734 285.08 284.269 285.062 283.907 284.991C283.852 283.786 283.706 282.586 283.47 281.403C282.782 281.371 282.285 282.025 281.916 282.611L280.964 284.121C280.826 284.381 280.632 284.606 280.396 284.781C280.206 284.886 279.997 284.952 279.782 284.977C277.964 285.279 276.129 284.707 274.375 284.139C274.117 284.069 273.869 283.964 273.64 283.826C273.327 283.596 273.116 283.254 273.049 282.871C272.983 282.488 273.068 282.094 273.285 281.773C274.02 280.778 275.671 281.062 276.587 280.238C276.491 280.818 276.334 281.386 276.118 281.932C277.343 281.748 278.167 280.625 279.154 279.876C279.401 279.665 279.7 279.523 280.02 279.464C280.259 279.444 280.5 279.469 280.73 279.538C281.868 279.825 282.932 280.349 283.854 281.076C284.227 281.371 284.809 281.787 284.972 282.242C285.146 282.785 284.961 283.78 284.961 284.359Z" fill="#3F3D56"/>
<path d="M309.383 167.151C313.433 167.151 316.717 163.865 316.717 159.812C316.717 155.758 313.433 152.472 309.383 152.472C305.332 152.472 302.048 155.758 302.048 159.812C302.048 163.865 305.332 167.151 309.383 167.151Z" fill="#FBBEBE"/>
<path d="M323.831 203.144C323.802 204.547 323.603 205.941 323.238 207.297C322.891 208.98 322.443 210.641 321.896 212.27C321.474 213.453 320.945 214.639 320.949 215.893C320.949 216.416 321.034 216.995 320.714 217.407C320.43 217.696 320.071 217.901 319.678 218C319.481 218.052 319.3 218.15 319.148 218.285C318.997 218.42 318.879 218.589 318.804 218.778C318.471 218.28 318.222 217.73 318.066 217.151C317.429 215.199 316.838 213.237 316.291 211.265C316.241 211.151 316.219 211.027 316.228 210.903C316.237 210.779 316.275 210.66 316.341 210.554C316.431 210.476 316.536 210.417 316.649 210.38C317.013 210.232 317.347 210.017 317.633 209.748C317.767 209.628 317.878 209.485 317.959 209.325C318.063 209.07 318.11 208.797 318.098 208.522C318.098 207.581 318.098 206.643 318.073 205.702C318.058 204.832 318.091 203.963 318.172 203.098C318.172 202.927 318.204 202.654 318.233 202.362C318.286 201.805 318.393 201.158 318.694 200.941C319.145 200.639 320.494 201.044 321.005 201.115C321.886 201.236 322.78 201.378 323.64 201.545C323.764 202.069 323.829 202.605 323.831 203.144Z" fill="#3F3D56"/>
<path d="M294.217 168.028C293.933 168.597 293.251 168.87 292.726 169.229L290.926 170.465C290.805 170.574 290.664 170.657 290.511 170.709C290.358 170.762 290.196 170.783 290.035 170.771C289.888 170.717 289.754 170.634 289.64 170.527C289.526 170.42 289.434 170.292 289.371 170.149C289.372 170.14 289.372 170.13 289.371 170.121L288.998 169.496L287.223 166.519C287.026 166.252 286.911 165.933 286.893 165.602C286.893 165.449 286.946 165.307 286.96 165.155C286.965 164.725 286.841 164.305 286.605 163.947C286.463 163.68 286.179 163.46 286.186 163.162C286.173 162.77 286.24 162.379 286.385 162.014C286.571 161.677 286.839 161.391 287.163 161.183C287.329 161.062 287.5 160.948 287.677 160.828C287.772 160.763 287.876 160.715 287.986 160.686C288.281 160.625 288.572 160.87 288.87 160.881C290.152 161.741 290.645 163.368 291.653 164.54C292.221 165.208 292.278 165.719 292.921 166.316C293.024 166.409 293.123 166.508 293.219 166.611C293.346 166.75 293.454 166.905 293.539 167.073C293.656 167.378 294.362 167.737 294.217 168.028Z" fill="#3F3D56"/>
<path d="M306.805 167.155C307.334 168.274 307.746 169.503 307.593 170.732C307.562 171.065 307.457 171.386 307.285 171.673C306.773 172.458 305.701 172.6 304.768 172.647C304.571 172.63 304.373 172.653 304.185 172.714C303.997 172.775 303.824 172.873 303.674 173.002C303.549 173.183 303.488 173.401 303.501 173.621C303.513 173.841 303.598 174.05 303.742 174.217C304.042 174.537 304.414 174.781 304.828 174.927C306.305 175.577 307.899 176.114 309.503 175.964C310.249 175.893 310.973 175.677 311.715 175.567C312.524 175.479 313.337 175.434 314.15 175.432C315.116 175.396 316.078 175.3 317.04 175.204L319.589 174.952C319.728 174.954 319.864 174.905 319.969 174.813C320.157 174.593 319.916 174.27 319.681 174.103C318.329 173.101 316.607 172.412 315.837 170.906C315.482 170.195 315.372 169.35 315.109 168.583C314.846 167.815 314.427 167.123 314.264 166.341C314.177 165.655 314.138 164.965 314.147 164.274C314.156 163.577 313.902 162.902 313.437 162.384C312.929 161.911 312.194 161.79 311.506 161.762C309.809 161.687 308.002 162.092 306.798 163.29C306.475 163.613 306.198 164 305.865 164.291C305.531 164.583 305.076 164.668 305.297 165.052C305.517 165.435 305.95 165.673 306.184 166.011C306.421 166.375 306.629 166.757 306.805 167.155Z" fill="#FBBEBE"/>
<path d="M321.264 177.488C320.817 180.224 320.089 182.906 319.092 185.492C318.591 186.66 318.164 187.858 317.814 189.08C317.54 190.181 317.594 191.361 317.342 192.465C317.029 193.84 316.717 195.218 316.465 196.604C316.042 198.72 315.873 200.878 315.961 203.034C315.961 203.373 316.026 203.71 316.152 204.025C316.269 204.281 316.458 204.501 316.568 204.764C316.65 204.995 316.684 205.24 316.667 205.485C316.649 205.729 316.582 205.968 316.468 206.185C316.286 206.591 316.039 206.966 315.737 207.293C312.428 208.281 308.889 207.957 305.442 208.167C302.264 208.359 299.051 209.012 295.92 208.469C295.565 207.048 296.158 205.56 296.666 204.174C298.139 200.149 299.769 195.957 299.506 191.741C299.478 191.249 299.423 190.759 299.339 190.274C298.824 187.286 299.385 184.192 300.283 181.297C300.841 179.492 300.816 177.57 300.688 175.691C300.625 175.081 300.617 174.466 300.663 173.854C300.715 173.23 300.947 172.634 301.331 172.139C301.331 172.114 301.363 172.089 301.38 172.064C301.398 172.039 301.537 172.043 301.647 172.064C301.675 172.076 301.705 172.082 301.735 172.082C301.766 172.082 301.796 172.076 301.824 172.064L301.863 172.039C301.878 172.028 301.896 172.023 301.915 172.023C301.933 172.023 301.951 172.028 301.966 172.039C302.048 172.089 302.094 172.259 302.271 172.291C302.534 172.331 302.798 172.356 303.063 172.366C303.382 172.375 303.699 172.421 304.007 172.501H304.05C304.512 172.579 304.986 172.538 305.427 172.384C305.722 172.31 306.005 172.2 306.272 172.057C306.35 171.972 306.84 171.893 306.94 171.833C307.263 171.638 307.192 170.721 307.259 170.345C307.297 169.967 307.386 169.596 307.526 169.243C307.687 168.983 307.91 168.766 308.175 168.612C308.44 168.458 308.739 168.371 309.045 168.359C309.656 168.344 310.267 168.399 310.866 168.522C312.19 168.71 313.547 168.679 314.846 168.984C315.499 169.137 316.213 169.368 316.813 169.069C316.976 169.108 317.001 169.25 317.001 169.425C316.985 169.59 316.952 169.753 316.901 169.911C316.674 170.892 317.444 171.794 318.155 172.504C318.454 172.839 318.809 173.122 319.202 173.339C319.557 173.503 319.912 173.57 320.267 173.748C320.554 173.901 320.799 174.125 320.977 174.398C321.181 174.711 321.319 175.063 321.382 175.432C321.458 176.119 321.418 176.814 321.264 177.488Z" fill="#3F3D56"/>
<path opacity="0.1" d="M321.265 177.488C320.817 180.224 320.089 182.906 319.092 185.492C318.591 186.66 318.164 187.858 317.814 189.08C317.541 190.181 317.594 191.361 317.342 192.465C317.03 193.84 316.717 195.218 316.465 196.604C316.391 196.647 316.312 196.686 316.234 196.721C315.793 196.932 315.325 197.083 314.843 197.169C313.977 197.274 313.101 197.245 312.244 197.083L307.178 196.405C305.155 196.131 303 195.801 301.498 194.43C300.664 193.677 300.117 192.682 299.517 191.723C299.489 191.231 299.434 190.741 299.35 190.256C298.835 187.268 299.396 184.174 300.294 181.279C300.852 179.474 300.827 177.552 300.699 175.673C300.636 175.063 300.628 174.448 300.674 173.837C300.726 173.212 300.958 172.616 301.342 172.121C301.445 172.09 301.551 172.067 301.658 172.05C301.729 172.035 301.802 172.026 301.874 172.021H301.977C302.097 172.022 302.216 172.036 302.332 172.064C302.574 172.141 302.811 172.232 303.042 172.337H303.085C303.389 172.438 303.709 172.483 304.029 172.472C304.498 172.472 304.981 172.398 305.449 172.366C306.028 172.275 306.621 172.382 307.132 172.668C307.462 172.933 307.775 173.219 308.069 173.524C308.424 173.803 308.824 174.02 309.251 174.167C312.307 175.334 315.698 175.263 318.702 173.968C318.99 173.804 319.318 173.72 319.65 173.726C319.895 173.774 320.127 173.874 320.331 174.018C320.544 174.142 320.754 174.263 320.97 174.373C321.175 174.686 321.313 175.038 321.375 175.407C321.456 176.102 321.419 176.806 321.265 177.488Z" fill="black"/>
<path d="M324.357 175.137C322.943 174.705 321.585 174.109 320.31 173.361C320.105 173.218 319.873 173.118 319.628 173.069C319.295 173.065 318.967 173.149 318.677 173.311C315.674 174.605 312.285 174.677 309.23 173.51C308.803 173.362 308.404 173.145 308.048 172.867C307.753 172.563 307.44 172.277 307.11 172.011C305.942 171.254 304.327 172.142 303.021 171.655C302.789 171.552 302.552 171.461 302.311 171.382C301.278 171.123 300.227 172.153 299.211 171.84C298.834 172.868 298.554 173.929 298.377 175.009C298.233 176.249 298.156 177.497 298.146 178.746C298.146 179.496 298.111 180.245 298.146 180.995C298.272 181.015 298.391 181.061 298.497 181.131C298.604 181.2 298.695 181.29 298.764 181.396C298.811 181.52 298.83 181.652 298.82 181.784C298.81 181.916 298.772 182.044 298.707 182.16C297.965 184.067 297.213 185.996 296.087 187.705C296.881 188.178 297.617 188.741 298.281 189.382C299.524 190.696 300.134 192.54 301.476 193.755C302.989 195.123 305.144 195.456 307.157 195.726L312.223 196.405C313.081 196.566 313.958 196.596 314.825 196.494C315.305 196.406 315.772 196.254 316.213 196.043C316.501 195.922 316.763 195.749 316.987 195.531C317.174 195.318 317.328 195.079 317.445 194.821C317.846 194.018 318.212 193.197 318.549 192.366C318.666 192.071 318.843 191.726 319.163 191.702C321.044 190.004 322.82 188.263 324.701 186.565C325.457 185.938 326.135 185.222 326.721 184.433C327.655 183.052 326.806 181.094 326.721 179.424C326.711 178.997 326.657 178.573 326.561 178.156C326.256 176.945 325.539 175.496 324.357 175.137Z" fill="#6C63FF"/>
<path opacity="0.1" d="M294.217 168.028C293.933 168.597 293.251 168.87 292.726 169.229L290.926 170.465C290.806 170.574 290.665 170.657 290.511 170.709C290.358 170.762 290.196 170.783 290.035 170.771C289.888 170.717 289.754 170.634 289.64 170.527C289.526 170.42 289.435 170.292 289.371 170.149C289.371 170.067 289.371 169.979 289.371 169.893C289.357 169.606 289.396 169.318 289.484 169.044C289.661 168.643 289.934 168.291 290.28 168.021C290.948 167.388 291.743 166.904 292.612 166.6C292.748 166.548 292.895 166.533 293.038 166.558C293.093 166.572 293.146 166.595 293.194 166.625C293.321 166.764 293.429 166.919 293.514 167.087C293.656 167.378 294.362 167.737 294.217 168.028Z" fill="black"/>
<path d="M298.455 171.773C297.852 171.744 297.358 171.307 296.918 170.892L295.573 169.641C295.483 169.565 295.404 169.477 295.338 169.378C295.266 169.24 295.211 169.093 295.175 168.941C294.89 168.224 294.443 167.582 293.869 167.066C293.769 166.938 293.634 166.842 293.482 166.789C293.337 166.762 293.188 166.777 293.052 166.831C292.183 167.134 291.388 167.618 290.72 168.252C290.374 168.522 290.101 168.874 289.925 169.275C289.835 169.549 289.797 169.837 289.811 170.124C289.819 171.063 290.03 171.989 290.429 172.838C290.489 172.97 290.556 173.101 290.627 173.229C291.101 174.013 291.661 174.741 292.296 175.4L293.141 176.345C293.972 177.275 294.802 178.206 295.704 179.062C296.027 179.407 296.419 179.681 296.854 179.865C297.073 179.954 297.312 179.982 297.545 179.944C297.778 179.906 297.996 179.805 298.175 179.652C298.345 179.455 298.473 179.225 298.551 178.977C299.098 177.556 299.616 176.078 299.648 174.547C299.656 173.934 299.63 173.321 299.57 172.71C299.517 172.064 299.059 171.812 298.455 171.773Z" fill="#6C63FF"/>
<path d="M319.969 221.506C319.948 225.08 319.694 228.648 319.209 232.188C319.138 232.76 319.06 233.332 319.021 233.904C318.904 235.563 319.096 237.229 318.939 238.877C318.858 239.769 318.673 240.654 318.517 241.524C317.823 245.409 317.62 249.365 317.913 253.3C318.403 259.847 316.902 266.398 317.583 272.927C317.666 274.197 317.595 275.472 317.374 276.725C317.247 277.502 317.063 278.269 316.823 279.02C316.305 280.798 315.784 282.574 315.261 284.348C315.2 284.618 315.079 284.87 314.906 285.087C314.725 285.244 314.513 285.36 314.283 285.428C314.054 285.496 313.812 285.514 313.575 285.481C311.527 285.417 309.599 284.533 307.739 283.67C307.525 283.585 307.327 283.465 307.153 283.314C306.766 282.913 306.798 282.281 306.628 281.751C306.457 281.222 305.996 280.725 305.733 280.181C305.517 279.667 305.386 279.121 305.346 278.565C305.109 276.746 304.948 274.92 304.863 273.087C304.728 270.508 306.432 268.135 306.993 265.627C308.058 260.696 307.157 255.41 309.049 250.732C309.645 249.254 308.779 247.464 308.694 245.872C308.663 244.845 308.53 243.824 308.296 242.824C307.941 241.488 307.192 240.231 307.139 238.845C307.1 237.844 307.423 236.867 307.59 235.879C307.811 234.426 307.791 232.946 307.529 231.499C307.341 230.306 307.054 229.112 306.766 227.947L306.702 228.078C305.837 229.77 305.093 231.521 304.476 233.318C304.192 234.188 303.944 235.076 303.589 235.922C303.298 236.632 302.939 237.282 302.588 237.95C301.327 240.305 300.23 242.745 299.304 245.25C298.864 246.48 298.477 247.737 298.093 248.97L295.463 257.496C294.753 259.737 293.975 261.904 293.279 264.142C292.296 267.339 291.313 270.508 290.169 273.634C289.104 276.6 287.837 279.673 288.217 282.806C287.238 283.267 286.163 283.485 285.082 283.442C283.253 283.28 281.457 282.844 279.757 282.149C279.079 281.897 278.376 281.613 277.918 281.055C277.13 280.092 277.325 278.682 277.563 277.457C277.653 276.904 277.795 276.362 277.989 275.837C278.259 275.183 278.699 274.604 278.976 273.957C279.533 272.718 279.569 271.314 279.789 269.968C280.009 268.622 280.499 267.201 281.649 266.469C281.845 264.103 282.817 261.769 283.353 259.457C283.758 257.705 283.893 255.904 284.212 254.128C284.532 252.352 285.047 250.576 286.119 249.137C286.034 247.653 286.369 246.176 287.084 244.874C287.257 244.588 287.399 244.284 287.507 243.968C287.573 243.66 287.611 243.346 287.621 243.03C287.738 241.796 288.265 240.636 289.119 239.737C288.764 238.44 289.257 237.087 289.701 235.829C290.26 234.225 290.513 232.529 290.446 230.831C290.391 230.357 290.414 229.877 290.514 229.41C290.613 229.055 290.808 228.753 290.922 228.412C291.023 227.994 291.077 227.567 291.082 227.137C291.22 225.215 291.998 223.403 292.857 221.687C293.368 220.686 292.935 219.325 293.041 218.21C293.226 216.355 293.428 214.437 294.348 212.821C294.518 212.515 294.703 212.224 294.856 211.908C295.041 211.456 295.14 210.974 295.15 210.487C295.182 209.673 295.296 208.998 295.005 208.242C296.904 206.661 299.496 206.217 301.966 206.11C304.437 206.004 306.936 206.227 309.354 205.702C310.064 205.542 310.774 205.321 311.523 205.215C313.224 204.966 314.949 205.353 316.628 205.737C316.511 206.803 316.902 207.826 317.338 208.817C319.043 212.832 319.937 217.144 319.969 221.506Z" fill="#33313F"/>
<path opacity="0.1" d="M311.608 222.32L307.529 231.499C307.341 230.305 307.054 229.112 306.766 227.947L306.702 228.078V227.886L308.924 222.995L311.608 222.32Z" fill="black"/>
<path opacity="0.1" d="M323.831 203.144C323.596 203.32 323.315 203.425 323.022 203.446C322.572 203.462 322.123 203.401 321.694 203.265L318.499 202.465C318.399 202.441 318.301 202.406 318.208 202.362C318.261 201.805 318.368 201.158 318.67 200.941C319.12 200.639 320.469 201.044 320.981 201.115C321.861 201.236 322.756 201.378 323.615 201.545C323.748 202.068 323.821 202.604 323.831 203.144Z" fill="black"/>
<path d="M326.533 182.007C326.601 182.302 326.696 182.593 326.753 182.892C326.849 183.624 326.824 184.367 326.679 185.091L326.388 187.123L326.096 189.165L324.971 197.027L324.694 198.973L324.304 201.691C324.285 201.917 324.228 202.138 324.133 202.345C324.017 202.538 323.855 202.699 323.661 202.814C323.467 202.928 323.247 202.993 323.022 203.002C322.573 203.016 322.124 202.955 321.694 202.821L318.499 202.018C318.359 201.993 318.226 201.938 318.109 201.858C318.011 201.762 317.941 201.643 317.904 201.511C317.868 201.379 317.868 201.24 317.903 201.108C317.949 200.838 318.066 200.586 318.105 200.316C318.183 199.79 317.963 199.25 318.041 198.728C318.118 198.396 318.237 198.074 318.396 197.773C319.461 195.417 318.844 192.668 319.206 190.11C319.532 188.097 320.381 186.205 321.67 184.625C322.464 183.628 323.378 182.731 324.389 181.954C324.786 181.645 325.418 181.009 325.919 180.888C326.562 180.753 326.427 181.559 326.533 182.007Z" fill="#6C63FF"/>
<path d="M302.354 151.407C302.119 152.153 302.485 152.973 302.318 153.734C302.137 154.572 301.349 155.155 301.125 155.996C300.77 157.279 301.857 158.448 302.652 159.513C305.598 163.471 305.212 168.948 304.203 173.776C303.392 177.649 302.27 181.451 300.848 185.144C300.405 186.291 299.915 187.456 299.042 188.316C300.675 187.847 302.411 187.375 304.047 187.829C306.12 188.405 307.91 190.419 310.011 189.961C311.275 189.68 312.163 188.558 313.299 187.936C315.429 186.789 317.995 187.51 320.37 187.879C320.882 188 321.418 187.973 321.915 187.801C322.295 187.597 322.617 187.3 322.852 186.938C323.912 185.577 324.547 183.933 324.677 182.213C324.733 181.356 324.606 180.498 324.306 179.694C324.005 178.889 323.538 178.158 322.934 177.549C322.429 177.073 321.826 176.689 321.439 176.128C321.063 175.472 320.861 174.731 320.853 173.975C320.573 170.067 321.524 166.078 320.544 162.298C320.189 160.952 319.611 159.663 319.454 158.284C319.259 156.568 319.724 154.732 319.043 153.162C318.507 151.915 317.324 151.03 316.05 150.575C314.775 150.121 313.412 149.993 312.06 149.865C310.114 149.702 303.167 148.867 302.354 151.407Z" fill="#33313F"/>
<g opacity="0.1">
<path opacity="0.1" d="M304.203 173.776C303.396 177.633 302.28 181.419 300.866 185.098C301.111 184.611 301.317 184.099 301.512 183.591C302.936 179.899 304.058 176.097 304.867 172.224C305.879 167.393 306.266 161.922 303.319 157.961C302.609 157.016 301.697 155.993 301.729 154.885C301.466 155.22 301.262 155.597 301.125 156C300.77 157.282 301.857 158.451 302.652 159.517C305.598 163.471 305.212 168.948 304.203 173.776Z" fill="black"/>
<path opacity="0.1" d="M302.361 153.375C302.646 153.021 302.858 152.614 302.986 152.178C303.041 151.65 303.026 151.117 302.943 150.593C302.67 150.799 302.464 151.083 302.354 151.407C302.144 152.036 302.386 152.718 302.361 153.375Z" fill="black"/>
<path opacity="0.1" d="M323.519 185.375C323.284 185.736 322.962 186.031 322.582 186.234C322.086 186.41 321.549 186.437 321.038 186.313C318.663 185.957 316.068 185.226 313.966 186.373C312.826 186.991 311.943 188.114 310.675 188.398C308.577 188.867 306.788 186.853 304.715 186.266C303.245 185.858 301.697 186.195 300.217 186.622C299.922 187.249 299.525 187.823 299.042 188.32C300.675 187.851 302.411 187.378 304.047 187.833C306.12 188.409 307.91 190.423 310.011 189.964C311.275 189.684 312.163 188.561 313.299 187.94C315.429 186.792 317.995 187.513 320.37 187.883C320.882 188.004 321.418 187.976 321.915 187.805C322.295 187.6 322.617 187.303 322.852 186.941C323.495 186.092 323.992 185.141 324.322 184.128C324.084 184.562 323.816 184.979 323.519 185.375Z" fill="black"/>
</g>
</g>
<defs>
<linearGradient id="paint0_linear" x1="272.859" y1="217.556" x2="327.176" y2="217.556" gradientUnits="userSpaceOnUse">
<stop stop-color="#808080" stop-opacity="0.25"/>
<stop offset="0.54" stop-color="#808080" stop-opacity="0.12"/>
<stop offset="1" stop-color="#808080" stop-opacity="0.1"/>
</linearGradient>
<clipPath id="clip0">
<rect width="414" height="286" fill="white"/>
</clipPath>
</defs>
</svg>
