<svg width="438" height="263" viewBox="0 0 438 263" fill="none" xmlns="http://www.w3.org/2000/svg">
<g clip-path="url(#clip0)">
<path d="M30.2791 246.781L56.1113 209.729L30.266 250.812L30.2509 255.028C28.4087 255.012 26.5852 254.952 24.7803 254.848C24.772 253.891 26.9676 201.224 26.8743 200.271C27.0017 200.235 27.0732 195.29 27.1238 195.073L0.136719 154.583L27.1528 191.241L27.2333 192.325L28.836 151.406L5.63777 109.503L29.0195 144.216C29.0282 143.659 30.1262 59.6435 30.137 59.1251C30.1437 59.4005 30.6476 125.985 30.6513 126.266L52.8377 99.4645L30.63 132.025L30.5166 168.647L51.1053 133.233C25.4108 184.879 31.0971 166.806 30.4409 194.395L60.3473 145.083L30.4153 201.499L30.2791 246.781Z" fill="#D0CDE1"/>
<path d="M425.47 251.812L436.235 236.371L425.464 253.491L425.458 255.248C424.691 255.242 423.931 255.217 423.178 255.173C423.175 254.775 424.09 232.827 424.051 232.43C424.104 232.415 424.134 230.354 424.155 230.264L412.909 213.391L424.167 228.667L424.201 229.118L424.869 212.067L415.201 194.605L424.945 209.07C424.949 208.838 425.406 173.827 425.411 173.611C425.414 173.726 425.624 201.473 425.625 201.59L434.871 190.421L425.616 203.99L425.569 219.251L434.149 204.493C423.441 226.016 425.811 218.484 425.537 229.981L438 209.432L425.527 232.942L425.47 251.812Z" fill="#D0CDE1"/>
<path d="M218.284 263C338.839 263 436.568 259.178 436.568 254.462C436.568 249.747 338.839 245.925 218.284 245.925C97.7291 245.925 0 249.747 0 254.462C0 259.178 97.7291 263 218.284 263Z" fill="#D0CDE1"/>
<path d="M324.168 100.838H74.9333V249.178H324.168V100.838Z" fill="#3F3D56"/>
<path d="M136.615 100.838C136.36 116.448 129.97 131.332 118.823 142.282C107.676 153.231 92.6649 159.368 77.0266 159.37C76.3261 159.37 75.6297 159.358 74.9333 159.333V100.838H136.615Z" fill="#6C63FF"/>
<path d="M211.743 249.178H188.038C188.93 246.756 190.545 244.666 192.664 243.19C194.784 241.713 197.306 240.922 199.89 240.922C202.475 240.922 204.997 241.713 207.117 243.19C209.236 244.666 210.851 246.756 211.743 249.178Z" fill="#6C63FF"/>
<path d="M324.168 172.449V222.414C317.743 222.101 311.684 219.332 307.247 214.681C302.811 210.03 300.336 203.854 300.336 197.431C300.336 191.009 302.811 184.833 307.247 180.182C311.684 175.531 317.743 172.762 324.168 172.449Z" fill="#6C63FF"/>
<path d="M278.382 154.741H121.152C117.096 154.741 113.809 158.023 113.809 162.072V162.072C113.809 166.12 117.096 169.402 121.152 169.402H278.382C282.437 169.402 285.725 166.12 285.725 162.072C285.725 158.023 282.437 154.741 278.382 154.741Z" fill="white"/>
<path d="M278.382 183.632H121.152C117.096 183.632 113.809 186.914 113.809 190.963V190.963C113.809 195.012 117.096 198.294 121.152 198.294H278.382C282.437 198.294 285.725 195.012 285.725 190.963C285.725 186.914 282.437 183.632 278.382 183.632Z" fill="white"/>
<path d="M278.382 212.524H232.794C228.738 212.524 225.45 215.806 225.45 219.854C225.45 223.903 228.738 227.185 232.794 227.185H278.382C282.437 227.185 285.725 223.903 285.725 219.854C285.725 215.806 282.437 212.524 278.382 212.524Z" fill="white"/>
<path d="M363.692 45.5828C363.692 45.5828 370.546 48.2435 370.926 56.9858C371.307 65.7281 369.023 90.0545 369.023 90.0545C369.023 90.0545 377.399 102.218 370.926 105.639C364.454 109.06 363.692 91.955 363.692 91.955L356.077 55.8455C356.077 55.8455 360.646 45.2027 363.692 45.5828Z" fill="#A0616A"/>
<path d="M293.635 73.7102C293.635 73.7102 277.263 84.353 276.501 75.9908C275.74 67.6286 281.451 34.94 281.451 34.94C281.451 34.94 282.212 20.8763 290.208 24.2972C298.204 27.7181 287.923 39.5012 287.923 39.5012L289.066 66.1082L296.681 65.7281L293.635 73.7102Z" fill="#A0616A"/>
<path d="M319.906 83.5928C319.906 83.5928 269.648 64.9679 272.313 86.6336C274.978 108.299 287.923 135.667 287.923 135.667L292.492 142.889H302.011L295.919 103.738C295.919 103.738 317.622 115.901 324.094 114.001C324.094 114.001 332.471 169.876 335.517 174.057C338.563 178.238 343.893 228.791 343.893 228.791L348.843 234.873H358.362V149.35C358.362 149.35 374.734 96.1361 362.169 93.4754C349.604 90.8147 319.906 83.5928 319.906 83.5928Z" fill="#2F2E41"/>
<path d="M291.35 137.947C291.35 137.947 289.066 133.766 285.258 137.947C281.451 142.128 272.313 147.07 272.313 147.07C272.313 147.07 252.514 151.631 268.505 155.432C284.497 159.233 286.4 155.432 286.4 155.432C286.4 155.432 289.066 156.192 291.35 156.952C293.635 157.712 308.484 155.052 308.484 152.771C308.484 150.491 303.443 136.861 301.394 138.925C299.346 140.988 291.35 137.947 291.35 137.947Z" fill="#2F2E41"/>
<path d="M349.573 231.11C349.573 231.11 343.959 226.495 342.638 227.814C341.317 229.132 334.382 238.034 334.382 238.034C334.382 238.034 315.889 252.209 332.731 254.517C349.573 256.825 348.582 250.561 348.582 250.561H353.866C354.526 250.561 363.442 246.605 363.112 244.957C362.782 243.308 358.819 229.867 357.498 230.818C356.177 231.77 349.573 231.11 349.573 231.11Z" fill="#2F2E41"/>
<path d="M298.584 31.139C305.734 31.139 311.53 25.353 311.53 18.2156C311.53 11.0781 305.734 5.29214 298.584 5.29214C291.435 5.29214 285.639 11.0781 285.639 18.2156C285.639 25.353 291.435 31.139 298.584 31.139Z" fill="#A0616A"/>
<path d="M307.722 16.6952C307.722 16.6952 317.622 25.0574 324.475 25.0574C331.329 25.0574 314.576 40.6415 314.576 40.6415L299.727 27.338L307.722 16.6952Z" fill="#A0616A"/>
<path d="M311.53 40.6415L311.233 37.6469C311.233 37.6469 318.764 24.2972 321.048 23.1569C323.333 22.0166 324.856 22.0166 324.856 22.0166C324.856 22.0166 332.471 14.0345 340.847 18.2156C349.224 22.3967 369.023 49.0037 369.023 49.0037C369.023 49.0037 354.935 50.144 356.839 61.1669C356.839 61.1669 370.926 97.2765 367.119 97.6566C363.311 98.0367 351.889 95.376 340.086 100.697C328.283 106.019 322.952 102.598 322.952 102.598L316.86 82.8327C316.86 82.8327 305.438 76.3709 305.819 70.6694L289.256 78.0814L290.779 64.0177L300.869 52.4246C300.869 52.4246 298.965 50.9042 311.53 40.6415Z" fill="#575A89"/>
<path d="M286.676 19.6127C286.162 20.1836 285.517 20.622 284.797 20.8908C284.059 21.0984 283.13 20.8438 282.836 20.1375L283.384 19.4263L281.743 18.4083L282.458 17.5708L281.136 16.138L282.179 15.3117L280.193 13.8936C282.767 9.70014 285.551 5.45416 289.616 2.67429C293.68 -0.105574 299.359 -1.09336 303.522 1.53602C305.684 2.90116 307.212 5.06786 308.437 7.3098C310.899 11.8186 313.07 16.2136 313.39 21.3391C311.844 19.8353 309.585 18.9879 308.039 17.4842C307.354 16.7586 306.578 16.1245 305.73 15.5975C304.112 14.6867 302.176 14.6062 300.365 14.1953C298.842 13.8499 297.854 13.1646 296.702 12.1849C295.331 11.0195 295.275 11.4701 293.891 12.7822C291.488 15.0607 289.083 17.3375 286.676 19.6127Z" fill="#2F2E41"/>
</g>
<defs>
<clipPath id="clip0">
<rect width="438" height="263" fill="white"/>
</clipPath>
</defs>
</svg>
